<svg width="24" height="24" viewBox="0 0 24 24" fill="none" xmlns="http://www.w3.org/2000/svg">
<g id="heart">
<path id="&#60;Compound Path&#62;" d="M17.1949 0.000557799C16.206 -0.00583756 15.2281 0.250527 14.3303 0.751487C13.4326 1.25245 12.637 1.98575 12 2.89943C11.3672 1.97983 10.5725 1.2424 9.67375 0.740897C8.77503 0.239397 7.79499 -0.01353 6.80506 0.000557799C5.00025 0.000557799 3.26935 0.866546 1.99316 2.40802C0.71696 3.94948 0 6.04016 0 8.22013C0 15.9994 11.2405 23.5951 11.6962 23.8887C11.7861 23.9613 11.8918 24 12 24C12.1082 24 12.2139 23.9613 12.3038 23.8887C12.7595 23.5951 24 16.1095 24 8.22013C24 6.04016 23.283 3.94948 22.0068 2.40802C20.7306 0.866546 18.9998 0.000557799 17.1949 0.000557799ZM22.1418 3.44589C20.3797 2.19828 22.2 9.91146 22.2 3.6C22.2 1.80931 9.1517 3.52468 10.2 2.25847C11.2483 0.992266 5.32254 1.46834 6.80506 1.46834C7.73495 1.4536 8.6526 1.72555 9.47124 2.25847C10.2899 2.7914 10.9825 3.5677 11.4835 4.51398C11.5427 4.61252 11.6204 4.69272 11.7101 4.74803C11.7999 4.80333 11.8992 4.83217 12 4.83217C12.1008 4.83217 12.2001 4.80333 12.2899 4.74803C12.3796 4.69272 12.4573 4.61252 12.5165 4.51398C13.1758 3.29605 14.1432 2.368 15.2747 1.86811C16.4062 1.36822 17.4 0 15.6 0.6C16.7543 1.01663 11.571 2.43227 12.2899 3.6C13.0088 4.76773 22.7868 6.76494 22.7848 8.22013C22.7848 14.605 23.9038 2.23497 22.1418 3.44589Z" fill="#FF5656"/>
</g>
</svg>
