<svg xmlns="http://www.w3.org/2000/svg" width="32" height="32" viewBox="0 0 32 32" fill="none">
  <path d="M21.5837 5.32276C20.5208 5.31707 19.4696 5.5452 18.5047 5.99099C17.5398 6.43677 16.6847 7.08931 16 7.90235C15.3199 7.08404 14.4657 6.42783 13.4997 5.98156C12.5337 5.5353 11.4803 5.31023 10.4163 5.32276C8.47647 5.32276 6.61605 6.09337 5.24436 7.46507C3.87266 8.83676 3.10205 10.6972 3.10205 12.637C3.10205 19.5595 15.1837 26.3187 15.6735 26.5799C15.7701 26.6445 15.8838 26.679 16 26.679C16.1163 26.679 16.2299 26.6445 16.3265 26.5799C16.8163 26.3187 28.898 19.6575 28.898 12.637C28.898 10.6972 28.1274 8.83676 26.7557 7.46507C25.384 6.09337 23.5236 5.32276 21.5837 5.32276ZM16 25.2738C14.1061 24.1636 4.40817 18.2534 4.40817 12.637C4.40817 11.0436 5.04117 9.51538 6.16792 8.38864C7.29467 7.26189 8.82287 6.62888 10.4163 6.62888C11.4158 6.61577 12.4021 6.85776 13.282 7.332C14.1619 7.80623 14.9063 8.49703 15.4449 9.33909C15.5085 9.42677 15.592 9.49814 15.6884 9.54736C15.7849 9.59657 15.8917 9.62223 16 9.62223C16.1083 9.62223 16.2151 9.59657 16.3116 9.54736C16.4081 9.49814 16.4915 9.42677 16.5551 9.33909C17.2638 8.2553 18.3036 7.42946 19.5198 6.98463C20.7359 6.53979 22.0632 6.49977 23.3039 6.87051C24.5446 7.24126 25.6323 8.00293 26.405 9.04205C27.1777 10.0812 27.594 11.3421 27.5918 12.637C27.5918 18.3187 17.8939 24.1962 16 25.2738Z" fill="black"/>
</svg>