<svg xmlns="http://www.w3.org/2000/svg" width="32" height="32" viewBox="0 0 32 32" fill="none">
  <path d="M15.9683 17.2675C19.1683 17.2675 21.7347 14.6695 21.7347 11.5011C21.7347 8.33283 19.1683 5.70312 15.9683 5.70312C12.7683 5.70312 10.202 8.30115 10.202 11.4695C10.202 14.6378 12.7683 17.2675 15.9683 17.2675ZM15.9683 7.22392C18.3129 7.22392 20.2139 9.12491 20.2139 11.4695C20.2139 13.814 18.3129 15.715 15.9683 15.715C13.6238 15.715 11.7228 13.8457 11.7228 11.5011C11.7228 9.15659 13.6238 7.22392 15.9683 7.22392ZM5.95644 26.2972H26.0436C26.4554 26.2972 26.804 25.9487 26.804 25.5368C26.804 21.5447 23.5406 18.2813 19.5485 18.2813H12.4515C8.45941 18.2813 5.19604 21.5447 5.19604 25.5368C5.19604 25.9487 5.54456 26.2972 5.95644 26.2972ZM12.4515 19.8021H19.5485C22.4634 19.8021 24.8396 21.9566 25.2198 24.7764H6.7802C7.1604 21.9566 9.53664 19.8021 12.4515 19.8021Z" fill="black"/>
</svg>