<svg width="25.905273" height="25.904297" viewBox="0 0 25.9053 25.9043" fill="none" xmlns="http://www.w3.org/2000/svg" xmlns:xlink="http://www.w3.org/1999/xlink">
	<desc></desc>
	<defs/>
	<path id="Vector" d="M24.75 1.14C24.02 0.41 23.02 0 21.98 0C20.94 0 19.94 0.41 19.2 1.14L1.58 18.76C1.08 19.26 0.68 19.86 0.41 20.52C0.13 21.18 -0.01 21.88 0 22.59L0 24.82C0 25.1 0.11 25.38 0.31 25.58C0.52 25.79 0.79 25.9 1.08 25.9L3.3 25.9C4.01 25.9 4.72 25.76 5.38 25.49C6.03 25.22 6.63 24.82 7.13 24.31L24.75 6.69C25.49 5.96 25.9 4.96 25.9 3.92C25.9 2.88 25.49 1.88 24.75 1.14ZM5.6 22.78C4.99 23.39 4.16 23.73 3.3 23.73L2.16 23.73L2.16 22.59C2.16 22.16 2.24 21.74 2.41 21.35C2.57 20.95 2.81 20.59 3.11 20.29L16.49 6.92L18.98 9.41L5.6 22.78ZM23.22 5.16L20.5 7.88L18.01 5.39L20.73 2.67C20.89 2.51 21.09 2.38 21.3 2.29C21.51 2.21 21.74 2.16 21.97 2.16C22.21 2.16 22.43 2.21 22.65 2.3C22.86 2.38 23.05 2.51 23.22 2.68C23.38 2.84 23.51 3.04 23.6 3.25C23.69 3.46 23.73 3.69 23.73 3.92C23.73 4.15 23.69 4.38 23.6 4.6C23.51 4.81 23.38 5 23.22 5.17L23.22 5.16Z" fill="#000000" fill-opacity="1.000000" fill-rule="nonzero"/>
</svg>
