<svg xmlns="http://www.w3.org/2000/svg" aria-hidden="true" style="position:absolute;width:0;height:0;overflow:hidden">
  <defs>
    <symbol id="icon-arrow-bottom" viewBox="0 0 32 32">
      <path d="M15.333 2.667h1.333c.368 0 .667.298.667.667v21.56l5.92-5.933a.666.666 0 0 1 .946 0l.933.947a.668.668 0 0 1 0 .946l-8.173 8.187a.997.997 0 0 1-.707.293h-.507a1.027 1.027 0 0 1-.707-.293l-8.173-8.187a.668.668 0 0 1 0-.946l.947-.947a.655.655 0 0 1 .934 0l5.92 5.933V3.334c0-.368.298-.667.667-.667z"/>
    </symbol>
    <symbol id="icon-arrow-hide-circle" viewBox="0 0 32 32">
      <path d="M16 32A16 16 0 0 0 27.313 4.687 16.006 16.006 0 0 0 9.877 1.218 16.005 16.005 0 0 0 0 16a16.013 16.013 0 0 0 16 16zm0-28.8a12.802 12.802 0 0 1 11.825 7.901A12.796 12.796 0 0 1 25.05 25.05a12.801 12.801 0 0 1-19.693-1.939A12.804 12.804 0 0 1 3.2 16 12.812 12.812 0 0 1 16 3.2z"/>
      <path d="M14.869 16.194a1.6 1.6 0 0 1 2.263 0l3.006 3.006a1.599 1.599 0 1 0 2.262-2.262l-5.269-5.269a1.6 1.6 0 0 0-2.263 0l-5.269 5.269a1.599 1.599 0 1 0 2.262 2.262l3.006-3.006z"/>
    </symbol>
    <symbol id="icon-arrow-left" viewBox="0 0 34 32">
      <path d="M.586 14.586a2 2 0 0 0 0 2.828l12.728 12.728a2 2 0 1 0 2.828-2.828L4.828 16 16.142 4.686a2 2 0 1 0-2.828-2.828L.586 14.586zM34 14H2v4h32v-4z"/>
    </symbol>
    <symbol id="icon-arrow-right" viewBox="0 0 34 32">
      <path d="M33.414 17.414a2 2 0 0 0 0-2.828L20.686 1.858a2 2 0 1 0-2.828 2.828L29.172 16 17.858 27.314a2 2 0 1 0 2.828 2.828l12.728-12.728zM0 18h32v-4H0v4z"/>
    </symbol>
    <symbol id="icon-arrow-right-small" viewBox="0 0 17 32">
      <path d="M7.57 14.027a2.91 2.91 0 0 1 0 3.946l-5.749 6.23a2.91 2.91 0 0 0 0 3.946l.074.08a2.91 2.91 0 0 0 4.276 0l9.464-10.256a2.91 2.91 0 0 0 0-3.946L6.171 3.771a2.91 2.91 0 0 0-4.276 0l-.074.08a2.91 2.91 0 0 0 0 3.946l5.749 6.23z"/>
    </symbol>
    <symbol id="icon-arrow-show-circle" viewBox="0 0 32 32">
      <path d="M16 0A15.998 15.998 0 0 0 4.687 27.313a15.994 15.994 0 0 0 17.436 3.468A16 16 0 0 0 32 15.999a16.013 16.013 0 0 0-16-16zm0 28.8a12.802 12.802 0 0 1-11.825-7.901A12.807 12.807 0 0 1 6.95 6.949a12.801 12.801 0 0 1 21.851 9.05 12.812 12.812 0 0 1-12.8 12.8z"/>
      <path d="M17.131 15.806a1.6 1.6 0 0 1-2.263 0L11.862 12.8A1.599 1.599 0 1 0 9.6 15.062l5.269 5.269a1.6 1.6 0 0 0 2.263 0l5.269-5.269a1.599 1.599 0 1 0-2.262-2.262l-3.006 3.006z"/>
    </symbol>
    <symbol id="icon-arrow-top" viewBox="0 0 32 32">
      <path d="M16.667 29.333h-1.333a.667.667 0 0 1-.667-.667V7.106l-5.92 5.933a.668.668 0 0 1-.946 0l-.933-.947a.668.668 0 0 1 0-.946l8.173-8.187a.997.997 0 0 1 .707-.293h.507c.265.003.518.108.707.293l8.173 8.187a.668.668 0 0 1 0 .946l-.947.947a.655.655 0 0 1-.934 0l-5.92-5.933v21.56a.667.667 0 0 1-.667.667z"/>
    </symbol>
    <symbol id="icon-arrow-turn-left" viewBox="0 0 32 32">
      <path d="M15.667 11.745V8.333a1.335 1.335 0 0 0-2.277-.944l-8.391 8.277 8.391 8.276a1.33 1.33 0 0 0 1.886 0c.26-.26.391-.603.391-.943V19.68c3.667.091 7.673.755 10.667 5.319v-1.333c0-6.177-4.667-11.257-10.667-11.921z"/>
    </symbol>
    <symbol id="icon-arrow-turn-right" viewBox="0 0 32 32">
      <path d="M15.999 12.078V8.666a1.335 1.335 0 0 1 2.277-.944l8.391 8.277-8.391 8.276a1.33 1.33 0 0 1-1.886 0 1.333 1.333 0 0 1-.391-.943v-3.319c-3.667.091-7.673.755-10.667 5.319v-1.333c0-6.177 4.667-11.257 10.667-11.921z"/>
    </symbol>
    <symbol id="icon-bin_basket" viewBox="0 0 32 32">
      <path d="M24 31H8a3.004 3.004 0 0 1-3-3V9a.997.997 0 0 1 1-1 .997.997 0 0 1 1 1v19a.997.997 0 0 0 1 1h16a.997.997 0 0 0 1-1V9a.997.997 0 0 1 1-1 .997.997 0 0 1 1 1v19a3.004 3.004 0 0 1-3 3zM28 7H4a.997.997 0 0 1-1-1 .997.997 0 0 1 1-1h24a.997.997 0 0 1 1 1 .997.997 0 0 1-1 1z"/>
      <path d="M20 7a.997.997 0 0 1-1-1V3h-6v3a.997.997 0 0 1-1 1 .997.997 0 0 1-1-1V2a.997.997 0 0 1 1-1h8a.997.997 0 0 1 1 1v4a.997.997 0 0 1-1 1zM16 26a.997.997 0 0 1-1-1V11a.997.997 0 0 1 1-1 .997.997 0 0 1 1 1v14a.997.997 0 0 1-1 1zM21 24a.997.997 0 0 1-1-1V13a.997.997 0 0 1 1-1 .997.997 0 0 1 1 1v10a.997.997 0 0 1-1 1zM11 24a.997.997 0 0 1-1-1V13a.997.997 0 0 1 1-1 .997.997 0 0 1 1 1v10a.997.997 0 0 1-1 1z"/>
    </symbol>
    <symbol id="icon-camera-filled" viewBox="0 0 32 32">
      <path d="M28.572 7h-4.857l-1.157-3.243A1.152 1.152 0 0 0 21.479 3H10.522c-.482 0-.914.304-1.075.757L8.286 7H3.429A2.856 2.856 0 0 0 .572 9.857v16.286A2.856 2.856 0 0 0 3.429 29h25.143a2.856 2.856 0 0 0 2.857-2.857V9.857A2.856 2.856 0 0 0 28.572 7zM16 23.286c-3.157 0-5.714-2.557-5.714-5.714s2.557-5.714 5.714-5.714c3.157 0 5.714 2.557 5.714 5.714S19.157 23.286 16 23.286zm-3.428-5.715a3.428 3.428 0 1 0 6.856 0 3.428 3.428 0 0 0-6.856 0z"/>
    </symbol>
    <symbol id="icon-chat" viewBox="0 0 32 32">
      <path d="M16.028 0C7.175 0 .002 6.65.002 14.857c0 3.402 1.247 6.518 3.313 9.014-.932 2.821-2.872 5.206-2.903 5.232-.415.5-.524 1.232-.29 1.857.243.625.779 1.039 1.381 1.039 3.851 0 6.831-1.839 8.709-3.304a17.035 17.035 0 0 0 5.816 1.018C24.881 29.713 32 23.061 32 14.856S24.881-.001 16.028-.001zm0 27.965c-1.675 0-3.947-.485-5.529-1.056l-1.455-.727-.563-.289s-4.092 3.381-5.571 3.925c.462-.866 2.871-3.693 3.216-4.729l-1.761-2.544c-1.129-1.377-2.863-4.674-2.863-7.688 0-6.304 7.341-12.675 14.526-12.675s14.108 6.372 14.108 12.675-6.926 13.107-14.108 13.107z"/>
    </symbol>
    <symbol id="icon-check_icon" viewBox="0 0 40 32">
      <path d="m12.727 25.871-9.545-9.194L0 19.742l12.727 12.259L40 5.732l-3.182-3.065-24.091 23.204z"/>
    </symbol>
    <symbol id="icon-check-circle-filled" viewBox="0 0 32 32">
      <path d="M16 2.666c-7.363 0-13.333 5.97-13.333 13.333S8.637 29.332 16 29.332s13.333-5.97 13.333-13.333S23.363 2.666 16 2.666zm5.76 8.979-6.268 8.69a.955.955 0 0 1-.769.396.94.94 0 0 1-.769-.396l-3.711-5.143a.239.239 0 0 1 .193-.378h1.396c.304 0 .592.146.771.396l2.119 2.94 4.679-6.488a.952.952 0 0 1 .771-.396h1.396c.194 0 .307.22.194.378z"/>
    </symbol>
    <symbol id="icon-close-circle-filled" viewBox="0 0 32 32">
      <path d="M16 2.666c-7.363 0-13.333 5.97-13.333 13.333S8.637 29.332 16 29.332s13.333-5.97 13.333-13.333S23.363 2.666 16 2.666zm4.923 18.398-1.964-.009-2.958-3.527-2.955 3.524-1.967.009a.237.237 0 0 1-.238-.238c0-.056.021-.11.057-.155l3.872-4.613-3.872-4.61a.239.239 0 0 1 .181-.393l1.967.009 2.955 3.527 2.955-3.524 1.964-.009c.131 0 .238.104.238.238 0 .057-.021.11-.056.155l-3.866 4.61 3.869 4.613a.239.239 0 0 1-.181.393z"/>
    </symbol>
    <symbol id="icon-create-plus" viewBox="0 0 33 32">
      <path stroke-width="1.454" d="M32.727 16c0 8.405-7.133 15.273-16 15.273S.727 24.405.727 16 7.86.727 16.727.727s16 6.868 16 15.273z"/>
      <path d="M16.727 8a2.09 2.09 0 0 1 2.091 2.091v11.818a2.09 2.09 0 1 1-4.182 0V10.091A2.09 2.09 0 0 1 16.727 8z"/>
      <path d="M8.364 16a2 2 0 0 1 2-2h12.727a2 2 0 1 1 0 4H10.364a2 2 0 0 1-2-2z"/>
    </symbol>
    <symbol id="icon-credit-card-filled" viewBox="0 0 32 32">
      <path d="M30.857 3.428H1.143C.511 3.428 0 3.939 0 4.571v5.714h32V4.571c0-.632-.511-1.143-1.143-1.143zM0 27.428c0 .632.511 1.143 1.143 1.143h29.714c.632 0 1.143-.511 1.143-1.143v-14H0v14zm20.679-6.571c0-.157.129-.286.286-.286h5.893c.157 0 .286.128.286.286v2.572a.287.287 0 0 1-.286.286h-5.893a.287.287 0 0 1-.286-.286v-2.572z"/>
    </symbol>
    <symbol id="icon-delivered-msg" viewBox="0 0 48 32">
      <path d="M15.273 25.313 3.818 15.283 0 18.626l15.273 13.373L48 3.342 44.182-.001 15.273 25.312z"/>
    </symbol>
    <symbol id="icon-ellipse" viewBox="0 0 32 32">
      <path d="M32 16c0 8.837-7.163 16-16 16S0 24.837 0 16 7.163 0 16 0s16 7.163 16 16z"/>
    </symbol>
    <symbol id="icon-eye-filled" viewBox="0 0 32 32">
      <path d="M11.857 15.999a4.003 4.003 0 0 0 4 4 4.003 4.003 0 0 0 4-4 4.003 4.003 0 0 0-4-4 4.003 4.003 0 0 0-4 4zm19.507-.921C27.978 7.946 22.86 4.357 16 4.357 9.136 4.357 4.021 7.946.636 15.082a2.153 2.153 0 0 0 0 1.84C4.022 24.054 9.14 27.643 16 27.643c6.864 0 11.979-3.589 15.364-10.725a2.153 2.153 0 0 0 0-1.839zm-15.507 7.207a6.286 6.286 0 1 1 0-12.572 6.286 6.286 0 0 1 0 12.572z"/>
    </symbol>
    <symbol id="icon-eye-invisible-filled" viewBox="0 0 32 32">
      <path d="M15.857 20a4.004 4.004 0 0 0 3.985-4.349l-4.332 4.332c.115.01.23.015.348.015zm13.24-16.373-1.526-1.524a.285.285 0 0 0-.404 0l-3.904 3.905C21.109 4.907 18.688 4.357 16 4.357 9.136 4.357 4.014 7.932.636 15.082a2.153 2.153 0 0 0 0 1.84c1.35 2.844 2.976 5.123 4.877 6.837l-3.778 3.777a.285.285 0 0 0 0 .404l1.525 1.525a.285.285 0 0 0 .404 0L29.098 4.032a.295.295 0 0 0 .084-.202c0-.038-.007-.075-.022-.109s-.036-.066-.062-.093zM9.572 15.999a6.287 6.287 0 0 1 6.129-6.284 6.28 6.28 0 0 1 3.117.739l-1.736 1.736a4.005 4.005 0 0 0-5.111 2.87 4.005 4.005 0 0 0 .078 2.163l-1.736 1.736a6.249 6.249 0 0 1-.74-2.96z"/>
      <path d="M31.364 15.08c-1.257-2.648-2.753-4.807-4.489-6.477l-5.148 5.148a6.29 6.29 0 0 1-8.121 8.121L9.24 26.238c2.026.937 4.279 1.406 6.759 1.406 6.864 0 11.986-3.575 15.364-10.725a2.153 2.153 0 0 0 0-1.84z"/>
    </symbol>
    <symbol id="icon-facebook" viewBox="0 0 32 32">
      <path stroke-width=".8" d="M19.638 11.654h.4v-3.33h-2.709c-2.173 0-3.702 1.854-3.702 4.037v.998h-2.472v3.178h2.472v7.138h3.525v-7.138h2.384l.06-.328.524-2.85h-2.968v-1.267c0-.156.05-.282.108-.362.043-.059.075-.074.082-.077h2.296zM1.04 16C1.04 7.738 7.738 1.04 16 1.04S30.96 7.738 30.96 16 24.262 30.96 16 30.96 1.04 24.262 1.04 16z"/>
    </symbol>
    <symbol id="icon-heart" viewBox="0 0 33 32">
      <path d="M23.969.001c-1.378-.009-2.742.333-3.993 1.001s-2.36 1.646-3.248 2.864c-.882-1.226-1.99-2.209-3.243-2.878S10.866-.018 9.486.001c-2.516 0-4.929 1.155-6.707 3.21S.001 8.054.001 10.96c0 10.372 15.669 20.5 16.304 20.891.125.097.273.148.423.148s.298-.052.423-.148c.635-.391 16.304-10.372 16.304-20.891 0-2.907-.999-5.694-2.778-7.749S26.485.001 23.97.001zm-7.242 29.894C14.271 28.232 1.694 19.376 1.694 10.961c0-2.388.821-4.677 2.282-6.366s3.443-2.637 5.51-2.637c1.296-.02 2.575.343 3.716 1.054s2.107 1.746 2.805 3.007c.082.131.191.238.316.312a.792.792 0 0 0 .808 0 .951.951 0 0 0 .316-.312c.919-1.624 2.268-2.861 3.845-3.528s3.298-.727 4.907-.171c1.609.556 3.02 1.697 4.022 3.254s1.542 3.446 1.539 5.387c0 8.513-12.577 17.32-15.033 18.934z"/>
    </symbol>
    <symbol id="icon-home" viewBox="0 0 32 32">
      <path d="M32 16.427v13.796c0 .982-.796 1.778-1.778 1.778h-7.111a1.778 1.778 0 0 1-1.778-1.778v-9.778a.889.889 0 0 0-.889-.889h-8.889a.889.889 0 0 0-.889.889v9.778c0 .982-.796 1.778-1.778 1.778H1.777a1.778 1.778 0 0 1-1.778-1.778V16.427a5.334 5.334 0 0 1 1.564-3.769L13.705.516A1.78 1.78 0 0 1 14.949 0h2.098c.466.002.913.187 1.244.516l12.142 12.142a5.33 5.33 0 0 1 1.564 3.769z"/>
    </symbol>
    <symbol id="icon-img-ampty-chat" viewBox="0 0 32 32">
      <path d="M4.828 2.336a3.535 3.535 0 0 0-3.522 3.522v16.666a3.535 3.535 0 0 0 3.522 3.522h1.614v2.697a.926.926 0 0 0 .46.797.919.919 0 0 0 .92-.001l6.034-3.493h13.315a3.535 3.535 0 0 0 3.522-3.522V5.858a3.535 3.535 0 0 0-3.522-3.522H4.827zm0 1.84h22.344c.948 0 1.682.734 1.682 1.682v16.666c0 .948-.734 1.682-1.682 1.682H13.61a.92.92 0 0 0-.461.124l-4.867 2.818v-2.022a.92.92 0 0 0-.921-.921H4.827a1.658 1.658 0 0 1-1.682-1.682V5.857c0-.948.734-1.682 1.682-1.682zM9.481 8.96a.92.92 0 0 0-.921.921v9.253a.92.92 0 0 0 .921.921h12.723a.92.92 0 0 0 .921-.921V9.881a.92.92 0 0 0-.921-.921h-1.905a.922.922 0 0 0-.933.92.918.918 0 0 0 .933.92h.985v.885c-.03.013-.06.027-.089.043l-5.26 2.882-5.534-2.993V10.8h6.701a.922.922 0 0 0 .933-.92.918.918 0 0 0-.933-.92H9.481zm.92 4.749 5.099 2.758a.927.927 0 0 0 .88-.002l4.904-2.687v4.435H10.401v-4.504z"/>
      <path d="M18.028 9.985a.923.923 0 0 1-.926.815h-6.701v.817l5.534 2.993 5.26-2.882a.913.913 0 0 1 .089-.043V10.8h-.985a.918.918 0 0 1-.927-.815h-1.344z"/>
    </symbol>
    <symbol id="icon-img-default" viewBox="0 0 42 32">
      <path d="M37.629 31.64H4.054c-1.955 0-3.57-1.615-3.57-3.57V4.1c0-1.955 1.615-3.57 3.57-3.57h33.575c1.955 0 3.57 1.615 3.57 3.57v23.97c0 1.955-1.615 3.57-3.57 3.57zM3.969 2.825c-.68 0-1.19.51-1.19 1.19v23.97c0 .68.51 1.19 1.19 1.19h33.575c.68 0 1.19-.51 1.19-1.19V4.015c0-.68-.51-1.19-1.19-1.19H3.969z"/>
      <path d="M26.834 14.725c-2.635 0-4.675-2.125-4.675-4.675s2.125-4.675 4.675-4.675 4.675 2.125 4.675 4.675-2.125 4.675-4.675 4.675zm0-7.225c-1.36 0-2.465 1.105-2.465 2.465s1.105 2.465 2.465 2.465c1.36 0 2.465-1.105 2.465-2.465S28.194 7.5 26.834 7.5zM33.21 31.214 13.575 12.769l-11.22 10.37-1.53-1.615 12.75-11.815 21.165 19.89-1.53 1.615z"/>
      <path d="m39.33 25.094-6.545-5.27-5.44 4.505-1.445-1.785 6.885-5.61 7.905 6.46-1.36 1.7z"/>
    </symbol>
    <symbol id="icon-info-circle-filled" viewBox="0 0 32 32">
      <path d="M16 2.666c-7.363 0-13.333 5.97-13.333 13.333S8.637 29.332 16 29.332s13.333-5.97 13.333-13.333S23.363 2.666 16 2.666zm.953 19.762a.239.239 0 0 1-.238.238h-1.429a.239.239 0 0 1-.238-.238v-8.095c0-.131.107-.238.238-.238h1.429c.131 0 .238.107.238.238v8.095zM16 12.189a1.429 1.429 0 0 1 0-2.858 1.433 1.433 0 0 1 1.4 1.429 1.431 1.431 0 0 1-1.4 1.429z"/>
    </symbol>
    <symbol id="icon-instagram" viewBox="0 0 32 32">
      <path stroke-width=".8" d="M19.348 9.616h.014c.482.006.958.094 1.41.261a2.36 2.36 0 0 1 1.351 1.349c.167.452.255.929.261 1.411v.014c.04.869.05 1.126.05 3.348s-.01 2.479-.05 3.348v.014a4.22 4.22 0 0 1-.261 1.41 2.36 2.36 0 0 1-1.349 1.351 4.222 4.222 0 0 1-1.411.261h-.014c-.869.04-1.126.05-3.348.05s-2.479-.01-3.348-.05h-.014a4.22 4.22 0 0 1-1.41-.261 2.36 2.36 0 0 1-1.351-1.349 4.222 4.222 0 0 1-.261-1.411v-.014c-.04-.869-.05-1.126-.05-3.348s.01-2.479.05-3.348v-.014a4.22 4.22 0 0 1 .261-1.41 2.36 2.36 0 0 1 1.349-1.351 4.222 4.222 0 0 1 1.411-.261h.014c.869-.04 1.126-.05 3.348-.05s2.479.01 3.348.05zM13.4 19.891a4.682 4.682 0 0 0 5.909-.582 4.683 4.683 0 0 0 .582-5.909 4.678 4.678 0 0 0-8.481 1.687 4.678 4.678 0 0 0 1.99 4.804zm6.27-7.176a1.399 1.399 0 0 0 2.178-1.164 1.399 1.399 0 0 0-1.673-1.374 1.398 1.398 0 0 0-1.02 1.909c.106.256.285.474.516.628z"/>
      <path stroke-width=".8" d="M18.379 16a2.378 2.378 0 1 1-4.756 0 2.378 2.378 0 0 1 4.756 0z"/>
      <path stroke-width=".8" d="m24.268 21.603.001-.004a6.522 6.522 0 0 0 .414-2.149c.04-.895.05-1.188.05-3.45s-.01-2.555-.05-3.45a6.522 6.522 0 0 0-.414-2.149l-.001-.004a4.66 4.66 0 0 0-2.665-2.665l-.004-.001a6.522 6.522 0 0 0-2.149-.414c-.895-.04-1.188-.05-3.45-.05s-2.555.01-3.45.05a6.527 6.527 0 0 0-2.149.414l-.004.001a4.66 4.66 0 0 0-2.665 2.665l-.001.004a6.522 6.522 0 0 0-.414 2.149c-.04.895-.05 1.188-.05 3.45s.01 2.555.05 3.45c.016.734.156 1.461.414 2.149l.001.004a4.66 4.66 0 0 0 2.665 2.665l.004.001a6.522 6.522 0 0 0 2.149.414c.895.04 1.188.05 3.45.05s2.555-.01 3.45-.05a6.527 6.527 0 0 0 2.149-.414l.004-.001a4.66 4.66 0 0 0 2.665-2.665zM7.333 3.029a15.601 15.601 0 0 1 21.638 21.638 15.607 15.607 0 0 1-16.014 6.634A15.601 15.601 0 0 1 .701 19.045 15.596 15.596 0 0 1 7.335 3.031z"/>
    </symbol>
    <symbol id="icon-location-on" viewBox="0 0 32 32">
      <path d="M16 2.667c-5.153 0-9.333 4.18-9.333 9.333C6.667 19 16 29.333 16 29.333S25.333 19 25.333 12c0-5.153-4.18-9.333-9.333-9.333zm0 12.666a3.334 3.334 0 0 1 0-6.666 3.334 3.334 0 0 1 0 6.666z"/>
    </symbol>
    <symbol id="icon-lock-filled" viewBox="0 0 32 32">
      <path d="M27.428 14.287h-2.429v-8a4.57 4.57 0 0 0-4.571-4.571h-8.857A4.57 4.57 0 0 0 7 6.287v8H4.571c-.632 0-1.143.511-1.143 1.143v13.714c0 .632.511 1.143 1.143 1.143h22.857c.632 0 1.143-.511 1.143-1.143V15.43c0-.632-.511-1.143-1.143-1.143zM17 22.751v1.893a.287.287 0 0 1-.286.286h-1.428a.287.287 0 0 1-.286-.286v-1.893a1.72 1.72 0 0 1-.632-1.918A1.708 1.708 0 0 1 16 19.644a1.715 1.715 0 0 1 1.001 3.107zm5.428-8.464H9.571v-8a2 2 0 0 1 2-2h8.857a2 2 0 0 1 2 2v8z"/>
    </symbol>
    <symbol id="icon-mail-filled" viewBox="0 0 32 32">
      <path d="M30.857 3.428H1.143C.511 3.428 0 3.939 0 4.571v22.857c0 .632.511 1.143 1.143 1.143h29.714c.632 0 1.143-.511 1.143-1.143V4.571c0-.632-.511-1.143-1.143-1.143zm-2.886 3.889-11.268 8.768a.766.766 0 0 1-.946 0L4.486 7.317a.258.258 0 0 1-.086-.286.26.26 0 0 1 .244-.174h23.171a.26.26 0 0 1 .244.174.254.254 0 0 1-.086.286z"/>
    </symbol>
    <symbol id="icon-paper-clip" viewBox="0 0 31 32">
      <path stroke-linecap="round" stroke-miterlimit="10" stroke-width="1.143" d="M9.098 18.341a2.462 2.462 0 1 0 3.482 3.483l9.321-9.321"/>
      <path stroke-linecap="round" stroke-miterlimit="10" stroke-width="1.143" d="M16.679 7.28 4.528 19.43a4.925 4.925 0 0 0 6.965 6.964l15.198-15.198a3.694 3.694 0 0 0-5.224-5.223L9.099 18.341"/>
    </symbol>
    <symbol id="icon-question-circle-filled" viewBox="0 0 32 32">
      <path d="M16 2.666c-7.363 0-13.333 5.97-13.333 13.333S8.637 29.332 16 29.332s13.333-5.97 13.333-13.333S23.363 2.666 16 2.666zm0 21.071a1.19 1.19 0 1 1 0-2.38 1.19 1.19 0 0 1 0 2.38zm1.872-6.533a1.438 1.438 0 0 0-.919 1.333v.676a.239.239 0 0 1-.238.238h-1.429a.239.239 0 0 1-.238-.238v-.64a3.33 3.33 0 0 1 2.143-3.149c1.012-.39 1.667-1.238 1.667-2.164 0-1.313-1.283-2.381-2.857-2.381s-2.857 1.068-2.857 2.381v.226a.239.239 0 0 1-.238.238h-1.429a.239.239 0 0 1-.238-.238v-.226c0-1.17.512-2.262 1.44-3.074.893-.783 2.071-1.211 3.321-1.211s2.429.432 3.321 1.211c.929.813 1.44 1.905 1.44 3.074 0 1.72-1.134 3.268-2.89 3.943z"/>
    </symbol>
    <symbol id="icon-read-msg" viewBox="0 0 48 32">
      <path d="m20.439 25.313-9.646-10.03-3.215 3.343 12.861 13.373L47.998 3.342 44.782-.001 20.438 25.312z"/>
      <path d="m12.861 25.313-9.646-10.03L0 18.626l12.861 13.373L40.42 3.342 37.205-.001 12.861 25.312z"/>
    </symbol>
    <symbol id="icon-search-outlined" viewBox="0 0 32 32">
      <path d="m30.2 28.233-9.275-9.275a10.622 10.622 0 0 0 2.218-6.529c0-2.864-1.118-5.55-3.139-7.575s-4.714-3.139-7.575-3.139a10.65 10.65 0 0 0-7.575 3.139 10.629 10.629 0 0 0-3.139 7.575 10.65 10.65 0 0 0 3.139 7.575 10.629 10.629 0 0 0 7.575 3.139c2.393 0 4.664-.779 6.525-2.214l9.275 9.271a.287.287 0 0 0 .319.064.266.266 0 0 0 .095-.064l1.557-1.553a.287.287 0 0 0 .064-.319.275.275 0 0 0-.064-.095zM18.085 18.087c-1.514 1.511-3.521 2.343-5.657 2.343s-4.143-.832-5.657-2.343c-1.511-1.514-2.343-3.521-2.343-5.657s.832-4.146 2.343-5.657c1.514-1.511 3.521-2.343 5.657-2.343s4.146.829 5.657 2.343c1.511 1.514 2.343 3.521 2.343 5.657s-.832 4.146-2.343 5.657z"/>
    </symbol>
    <symbol id="icon-send" viewBox="0 0 32 32">
      <path stroke-linecap="round" stroke-linejoin="round" stroke-width="2.667" d="M29.333 2.667 14.666 17.334M29.333 2.667 20 29.334l-5.333-12-12-5.333 26.667-9.333z"/>
    </symbol>
    <symbol id="icon-unlock-filled" viewBox="0 0 32 32">
      <path d="M27.428 14.287H9.571v-8a2 2 0 0 1 2-2h8.857a2 2 0 0 1 2 2v2.429c0 .157.128.286.286.286h2A.287.287 0 0 0 25 8.716V6.287a4.57 4.57 0 0 0-4.571-4.571h-8.857a4.57 4.57 0 0 0-4.571 4.571v8H4.572c-.632 0-1.143.511-1.143 1.143v13.714c0 .632.511 1.143 1.143 1.143h22.857c.632 0 1.143-.511 1.143-1.143V15.43c0-.632-.511-1.143-1.143-1.143zM17 22.751v1.893a.287.287 0 0 1-.286.286h-1.428a.287.287 0 0 1-.286-.286v-1.893a1.72 1.72 0 0 1-.632-1.918A1.708 1.708 0 0 1 16 19.644a1.715 1.715 0 0 1 1.001 3.107z"/>
    </symbol>
    <symbol id="icon-user" viewBox="0 0 33 32">
      <path d="M16.678 17.969c4.954 0 8.928-4.037 8.928-8.96S21.633 0 16.678 0C11.724 0 7.75 4.037 7.75 8.96s3.973 9.009 8.928 9.009zm0-15.606c3.63 0 6.573 2.954 6.573 6.597s-2.943 6.597-6.573 6.597c-3.63 0-6.573-2.905-6.573-6.548s2.943-6.646 6.573-6.646zM1.177 32h31.1c.638 0 1.177-.542 1.177-1.182 0-6.203-5.053-11.274-11.233-11.274H11.233C5.052 19.544 0 24.615 0 30.818 0 31.458.54 32 1.177 32zm10.056-10.092h10.988c4.513 0 8.192 3.348 8.781 7.729H2.453c.589-4.382 4.268-7.729 8.781-7.729z"/>
    </symbol>
    <symbol id="icon-warning-filled" viewBox="0 0 32 32">
      <path d="M30.524 27.7 16.906 3.21a1.028 1.028 0 0 0-1.814 0L1.474 27.7c-.403.728.101 1.633.907 1.633h27.237c.805 0 1.309-.905.907-1.633zM14.952 12.734c0-.15.118-.272.262-.272h1.571c.144 0 .262.122.262.272v6.259c0 .15-.118.272-.262.272h-1.571a.268.268 0 0 1-.262-.272v-6.258zm1.047 11.972c-.411-.009-.803-.184-1.091-.49s-.449-.716-.449-1.143c0-.427.161-.838.449-1.143s.679-.481 1.091-.49c.411.009.803.185 1.091.49s.449.716.449 1.143-.161.838-.449 1.143a1.546 1.546 0 0 1-1.091.49z"/>
    </symbol>
  </defs>
</svg>
 