<svg xmlns="http://www.w3.org/2000/svg" aria-hidden="true" style="position:absolute;width:0;height:0;overflow:hidden">
  <defs>
    <symbol id="icon-arrow-bottom" viewBox="0 0 32 32">
      <path d="M15.333 2.667h1.333c.368 0 .667.298.667.667v21.56l5.92-5.933a.666.666 0 0 1 .946 0l.933.947a.668.668 0 0 1 0 .946l-8.173 8.187a.997.997 0 0 1-.707.293h-.507a1.027 1.027 0 0 1-.707-.293l-8.173-8.187a.668.668 0 0 1 0-.946l.947-.947a.655.655 0 0 1 .934 0l5.92 5.933V3.334c0-.368.298-.667.667-.667z"/>
    </symbol>
    <symbol id="icon-arrow-hide-circle" viewBox="0 0 32 32">
      <path d="M16 32A16 16 0 0 0 27.313 4.687 16.006 16.006 0 0 0 9.877 1.218 16.005 16.005 0 0 0 0 16a16.013 16.013 0 0 0 16 16zm0-28.8a12.802 12.802 0 0 1 11.825 7.901A12.796 12.796 0 0 1 25.05 25.05a12.801 12.801 0 0 1-19.693-1.939A12.804 12.804 0 0 1 3.2 16 12.812 12.812 0 0 1 16 3.2z"/>
      <path d="M14.869 16.194a1.6 1.6 0 0 1 2.263 0l3.006 3.006a1.599 1.599 0 1 0 2.262-2.262l-5.269-5.269a1.6 1.6 0 0 0-2.263 0l-5.269 5.269a1.599 1.599 0 1 0 2.262 2.262l3.006-3.006z"/>
    </symbol>
    <symbol id="icon-arrow-left" viewBox="0 0 34 32">
      <path d="M.586 14.586a2 2 0 0 0 0 2.828l12.728 12.728a2 2 0 1 0 2.828-2.828L4.828 16 16.142 4.686a2 2 0 1 0-2.828-2.828L.586 14.586zM34 14H2v4h32v-4z"/>
    </symbol>
    <symbol id="icon-arrow-right" viewBox="0 0 34 32">
      <path d="M33.414 17.414a2 2 0 0 0 0-2.828L20.686 1.858a2 2 0 1 0-2.828 2.828L29.172 16 17.858 27.314a2 2 0 1 0 2.828 2.828l12.728-12.728zM0 18h32v-4H0v4z"/>
    </symbol>
    <symbol id="icon-arrow-right-small" viewBox="0 0 17 32">
      <path d="M7.57 14.027a2.91 2.91 0 0 1 0 3.946l-5.749 6.23a2.91 2.91 0 0 0 0 3.946l.074.08a2.91 2.91 0 0 0 4.276 0l9.464-10.256a2.91 2.91 0 0 0 0-3.946L6.171 3.771a2.91 2.91 0 0 0-4.276 0l-.074.08a2.91 2.91 0 0 0 0 3.946l5.749 6.23z"/>
    </symbol>
    <symbol id="icon-arrow-show-circle" viewBox="0 0 32 32">
      <path d="M16 0A15.998 15.998 0 0 0 4.687 27.313a15.994 15.994 0 0 0 17.436 3.468A16 16 0 0 0 32 15.999a16.013 16.013 0 0 0-16-16zm0 28.8a12.802 12.802 0 0 1-11.825-7.901A12.807 12.807 0 0 1 6.95 6.949a12.801 12.801 0 0 1 21.851 9.05 12.812 12.812 0 0 1-12.8 12.8z"/>
      <path d="M17.131 15.806a1.6 1.6 0 0 1-2.263 0L11.862 12.8A1.599 1.599 0 1 0 9.6 15.062l5.269 5.269a1.6 1.6 0 0 0 2.263 0l5.269-5.269a1.599 1.599 0 1 0-2.262-2.262l-3.006 3.006z"/>
    </symbol>
    <symbol id="icon-arrow-top" viewBox="0 0 32 32">
      <path d="M16.667 29.333h-1.333a.667.667 0 0 1-.667-.667V7.106l-5.92 5.933a.668.668 0 0 1-.946 0l-.933-.947a.668.668 0 0 1 0-.946l8.173-8.187a.997.997 0 0 1 .707-.293h.507c.265.003.518.108.707.293l8.173 8.187a.668.668 0 0 1 0 .946l-.947.947a.655.655 0 0 1-.934 0l-5.92-5.933v21.56a.667.667 0 0 1-.667.667z"/>
    </symbol>
    <symbol id="icon-arrow-turn-left" viewBox="0 0 32 32">
      <path d="M15.667 11.745V8.333a1.335 1.335 0 0 0-2.277-.944l-8.391 8.277 8.391 8.276a1.33 1.33 0 0 0 1.886 0c.26-.26.391-.603.391-.943V19.68c3.667.091 7.673.755 10.667 5.319v-1.333c0-6.177-4.667-11.257-10.667-11.921z"/>
    </symbol>
    <symbol id="icon-arrow-turn-right" viewBox="0 0 32 32">
      <path d="M15.999 12.078V8.666a1.335 1.335 0 0 1 2.277-.944l8.391 8.277-8.391 8.276a1.33 1.33 0 0 1-1.886 0 1.333 1.333 0 0 1-.391-.943v-3.319c-3.667.091-7.673.755-10.667 5.319v-1.333c0-6.177 4.667-11.257 10.667-11.921z"/>
    </symbol>
    <symbol id="icon-bin_basket" viewBox="0 0 32 32">
      <path d="M24 31H8a3.004 3.004 0 0 1-3-3V9a.997.997 0 0 1 1-1 .997.997 0 0 1 1 1v19a.997.997 0 0 0 1 1h16a.997.997 0 0 0 1-1V9a.997.997 0 0 1 1-1 .997.997 0 0 1 1 1v19a3.004 3.004 0 0 1-3 3zm4-24H4a.997.997 0 0 1-1-1 .997.997 0 0 1 1-1h24a.997.997 0 0 1 1 1 .997.997 0 0 1-1 1z"/>
      <path d="M20 7a.997.997 0 0 1-1-1V3h-6v3a.997.997 0 0 1-1 1 .997.997 0 0 1-1-1V2a.997.997 0 0 1 1-1h8a.997.997 0 0 1 1 1v4a.997.997 0 0 1-1 1zm-4 19a.997.997 0 0 1-1-1V11a.997.997 0 0 1 1-1 .997.997 0 0 1 1 1v14a.997.997 0 0 1-1 1zm5-2a.997.997 0 0 1-1-1V13a.997.997 0 0 1 1-1 .997.997 0 0 1 1 1v10a.997.997 0 0 1-1 1zm-10 0a.997.997 0 0 1-1-1V13a.997.997 0 0 1 1-1 .997.997 0 0 1 1 1v10a.997.997 0 0 1-1 1z"/>
    </symbol>
    <symbol id="icon-camera-filled" viewBox="0 0 32 32">
      <path d="M28.572 7h-4.857l-1.157-3.243A1.152 1.152 0 0 0 21.479 3H10.522c-.482 0-.914.304-1.075.757L8.286 7H3.429A2.856 2.856 0 0 0 .572 9.857v16.286A2.856 2.856 0 0 0 3.429 29h25.143a2.856 2.856 0 0 0 2.857-2.857V9.857A2.856 2.856 0 0 0 28.572 7zM16 23.286c-3.157 0-5.714-2.557-5.714-5.714s2.557-5.714 5.714-5.714c3.157 0 5.714 2.557 5.714 5.714S19.157 23.286 16 23.286zm-3.428-5.715a3.428 3.428 0 1 0 6.856 0 3.428 3.428 0 0 0-6.856 0z"/>
    </symbol>
    <symbol id="icon-chat" viewBox="0 0 32 32">
      <path d="M16.028 0C7.175 0 .002 6.65.002 14.857c0 3.402 1.247 6.518 3.313 9.014-.932 2.821-2.872 5.206-2.903 5.232-.415.5-.524 1.232-.29 1.857.243.625.779 1.039 1.381 1.039 3.851 0 6.831-1.839 8.709-3.304a17.035 17.035 0 0 0 5.816 1.018C24.881 29.713 32 23.061 32 14.856S24.881-.001 16.028-.001zm0 27.965c-1.675 0-3.947-.485-5.529-1.056l-1.455-.727-.563-.289s-4.092 3.381-5.571 3.925c.462-.866 2.871-3.693 3.216-4.729l-1.761-2.544c-1.129-1.377-2.863-4.674-2.863-7.688 0-6.304 7.341-12.675 14.526-12.675s14.108 6.372 14.108 12.675-6.926 13.107-14.108 13.107z"/>
    </symbol>
    <symbol id="icon-check_icon" viewBox="0 0 40 32">
      <path d="m12.727 25.871-9.545-9.194L0 19.742l12.727 12.259L40 5.732l-3.182-3.065-24.091 23.204z"/>
    </symbol>
    <symbol id="icon-check-circle-filled" viewBox="0 0 32 32">
      <path d="M16 2.666c-7.363 0-13.333 5.97-13.333 13.333S8.637 29.332 16 29.332s13.333-5.97 13.333-13.333S23.363 2.666 16 2.666zm5.76 8.979-6.268 8.69a.955.955 0 0 1-.769.396.94.94 0 0 1-.769-.396l-3.711-5.143a.239.239 0 0 1 .193-.378h1.396c.304 0 .592.146.771.396l2.119 2.94 4.679-6.488a.952.952 0 0 1 .771-.396h1.396c.194 0 .307.22.194.378z"/>
    </symbol>
    <symbol id="icon-close-circle-filled" viewBox="0 0 32 32">
      <path d="M16 2.666c-7.363 0-13.333 5.97-13.333 13.333S8.637 29.332 16 29.332s13.333-5.97 13.333-13.333S23.363 2.666 16 2.666zm4.923 18.398-1.964-.009-2.958-3.527-2.955 3.524-1.967.009a.237.237 0 0 1-.238-.238c0-.056.021-.11.057-.155l3.872-4.613-3.872-4.61a.239.239 0 0 1 .181-.393l1.967.009 2.955 3.527 2.955-3.524 1.964-.009c.131 0 .238.104.238.238 0 .057-.021.11-.056.155l-3.866 4.61 3.869 4.613a.239.239 0 0 1-.181.393z"/>
    </symbol>
    <!-- was changed -->
    <!-- <symbol id="icon-create-plus" viewBox="0 0 33 32">
      <path stroke-width="1.454" d="M32.727 16c0 8.405-7.133 15.273-16 15.273S.727 24.405.727 16 7.86.727 16.727.727s16 6.868 16 15.273z"/>
      <path d="M16.727 8a2.09 2.09 0 0 1 2.091 2.091v11.818a2.09 2.09 0 1 1-4.182 0V10.091A2.09 2.09 0 0 1 16.727 8z"/>
      <path d="M8.364 16a2 2 0 0 1 2-2h12.727a2 2 0 1 1 0 4H10.364a2 2 0 0 1-2-2z"/>
    </symbol> -->
    <symbol id="icon-create-plus" viewBox="0 0 23 22" fill="none" xmlns="http://www.w3.org/2000/svg">
      <path d="M22.5 11C22.5 16.7783 17.5963 21.5 11.5 21.5C5.40369 21.5 0.5 16.7783 0.5 11C0.5 5.22172 5.40369 0.5 11.5 0.5C17.5963 0.5 22.5 5.22172 22.5 11Z" stroke="black"/>
      <rect x="10.0625" y="5.5" width="2.875" height="11" rx="1.4375" fill="black"/>
      <rect x="5.75" y="12.375" width="2.75" height="11.5" rx="1.375" transform="rotate(-90 5.75 12.375)" fill="black"/>
    </symbol>
    <!-- was changed -->
    <symbol id="icon-credit-card-filled" viewBox="0 0 32 32">
      <path d="M30.857 3.428H1.143C.511 3.428 0 3.939 0 4.571v5.714h32V4.571c0-.632-.511-1.143-1.143-1.143zM0 27.428c0 .632.511 1.143 1.143 1.143h29.714c.632 0 1.143-.511 1.143-1.143v-14H0v14zm20.679-6.571c0-.157.129-.286.286-.286h5.893c.157 0 .286.128.286.286v2.572a.287.287 0 0 1-.286.286h-5.893a.287.287 0 0 1-.286-.286v-2.572z"/>
    </symbol>
    <symbol id="icon-delivered-msg" viewBox="0 0 48 32">
      <path d="M15.273 25.313 3.818 15.283 0 18.626l15.273 13.373L48 3.342 44.182-.001 15.273 25.312z"/>
    </symbol>
    <symbol id="icon-ellipse" viewBox="0 0 32 32">
      <path d="M32 16c0 8.837-7.163 16-16 16S0 24.837 0 16 7.163 0 16 0s16 7.163 16 16z"/>
    </symbol>
    <symbol id="icon-eye-filled" viewBox="0 0 32 32">
      <path d="M11.857 15.999a4.003 4.003 0 0 0 4 4 4.003 4.003 0 0 0 4-4 4.003 4.003 0 0 0-4-4 4.003 4.003 0 0 0-4 4zm19.507-.921C27.978 7.946 22.86 4.357 16 4.357 9.136 4.357 4.021 7.946.636 15.082a2.153 2.153 0 0 0 0 1.84C4.022 24.054 9.14 27.643 16 27.643c6.864 0 11.979-3.589 15.364-10.725a2.153 2.153 0 0 0 0-1.839zm-15.507 7.207a6.286 6.286 0 1 1 0-12.572 6.286 6.286 0 0 1 0 12.572z"/>
    </symbol>
    <symbol id="icon-eye-invisible-filled" viewBox="0 0 32 32">
      <path d="M15.857 20a4.004 4.004 0 0 0 3.985-4.349l-4.332 4.332c.115.01.23.015.348.015zm13.24-16.373-1.526-1.524a.285.285 0 0 0-.404 0l-3.904 3.905C21.109 4.907 18.688 4.357 16 4.357 9.136 4.357 4.014 7.932.636 15.082a2.153 2.153 0 0 0 0 1.84c1.35 2.844 2.976 5.123 4.877 6.837l-3.778 3.777a.285.285 0 0 0 0 .404l1.525 1.525a.285.285 0 0 0 .404 0L29.098 4.032a.295.295 0 0 0 .084-.202c0-.038-.007-.075-.022-.109s-.036-.066-.062-.093zM9.572 15.999a6.287 6.287 0 0 1 6.129-6.284 6.28 6.28 0 0 1 3.117.739l-1.736 1.736a4.005 4.005 0 0 0-5.111 2.87 4.005 4.005 0 0 0 .078 2.163l-1.736 1.736a6.249 6.249 0 0 1-.74-2.96z"/>
      <path d="M31.364 15.08c-1.257-2.648-2.753-4.807-4.489-6.477l-5.148 5.148a6.29 6.29 0 0 1-8.121 8.121L9.24 26.238c2.026.937 4.279 1.406 6.759 1.406 6.864 0 11.986-3.575 15.364-10.725a2.153 2.153 0 0 0 0-1.84z"/>
    </symbol>
    <symbol id="icon-facebook" viewBox="0 0 32 32">
      <path stroke-width=".8" d="M19.638 11.654h.4v-3.33h-2.709c-2.173 0-3.702 1.854-3.702 4.037v.998h-2.472v3.178h2.472v7.138h3.525v-7.138h2.384l.06-.328.524-2.85h-2.968v-1.267c0-.156.05-.282.108-.362.043-.059.075-.074.082-.077h2.296zM1.04 16C1.04 7.738 7.738 1.04 16 1.04S30.96 7.738 30.96 16 24.262 30.96 16 30.96 1.04 24.262 1.04 16z"/>
    </symbol>
    <symbol id="icon-heart" viewBox="0 0 33 32">
      <path d="M23.969.001c-1.378-.009-2.742.333-3.993 1.001s-2.36 1.646-3.248 2.864c-.882-1.226-1.99-2.209-3.243-2.878S10.866-.018 9.486.001c-2.516 0-4.929 1.155-6.707 3.21S.001 8.054.001 10.96c0 10.372 15.669 20.5 16.304 20.891.125.097.273.148.423.148s.298-.052.423-.148c.635-.391 16.304-10.372 16.304-20.891 0-2.907-.999-5.694-2.778-7.749S26.485.001 23.97.001zm-7.242 29.894C14.271 28.232 1.694 19.376 1.694 10.961c0-2.388.821-4.677 2.282-6.366s3.443-2.637 5.51-2.637c1.296-.02 2.575.343 3.716 1.054s2.107 1.746 2.805 3.007c.082.131.191.238.316.312a.792.792 0 0 0 .808 0 .951.951 0 0 0 .316-.312c.919-1.624 2.268-2.861 3.845-3.528s3.298-.727 4.907-.171c1.609.556 3.02 1.697 4.022 3.254s1.542 3.446 1.539 5.387c0 8.513-12.577 17.32-15.033 18.934z"/>
    </symbol>
    <symbol id="icon-home" viewBox="0 0 32 32">
      <path d="M32 16.427v13.796c0 .982-.796 1.778-1.778 1.778h-7.111a1.778 1.778 0 0 1-1.778-1.778v-9.778a.889.889 0 0 0-.889-.889h-8.889a.889.889 0 0 0-.889.889v9.778c0 .982-.796 1.778-1.778 1.778H1.777a1.778 1.778 0 0 1-1.778-1.778V16.427a5.334 5.334 0 0 1 1.564-3.769L13.705.516A1.78 1.78 0 0 1 14.949 0h2.098c.466.002.913.187 1.244.516l12.142 12.142a5.33 5.33 0 0 1 1.564 3.769z"/>
    </symbol>
    <symbol id="icon-img-ampty-chat" viewBox="0 0 32 32">
      <path d="M4.828 2.336a3.535 3.535 0 0 0-3.522 3.522v16.666a3.535 3.535 0 0 0 3.522 3.522h1.614v2.697a.926.926 0 0 0 .46.797.919.919 0 0 0 .92-.001l6.034-3.493h13.315a3.535 3.535 0 0 0 3.522-3.522V5.858a3.535 3.535 0 0 0-3.522-3.522H4.827zm0 1.84h22.344c.948 0 1.682.734 1.682 1.682v16.666c0 .948-.734 1.682-1.682 1.682H13.61a.92.92 0 0 0-.461.124l-4.867 2.818v-2.022a.92.92 0 0 0-.921-.921H4.827a1.658 1.658 0 0 1-1.682-1.682V5.857c0-.948.734-1.682 1.682-1.682zM9.481 8.96a.92.92 0 0 0-.921.921v9.253a.92.92 0 0 0 .921.921h12.723a.92.92 0 0 0 .921-.921V9.881a.92.92 0 0 0-.921-.921h-1.905a.922.922 0 0 0-.933.92.918.918 0 0 0 .933.92h.985v.885c-.03.013-.06.027-.089.043l-5.26 2.882-5.534-2.993V10.8h6.701a.922.922 0 0 0 .933-.92.918.918 0 0 0-.933-.92H9.481zm.92 4.749 5.099 2.758a.927.927 0 0 0 .88-.002l4.904-2.687v4.435H10.401v-4.504z"/>
      <path d="M18.028 9.985a.923.923 0 0 1-.926.815h-6.701v.817l5.534 2.993 5.26-2.882a.913.913 0 0 1 .089-.043V10.8h-.985a.918.918 0 0 1-.927-.815h-1.344z"/>
    </symbol>
    <symbol id="icon-img-default" viewBox="0 0 42 32">
      <path d="M37.629 31.64H4.054c-1.955 0-3.57-1.615-3.57-3.57V4.1c0-1.955 1.615-3.57 3.57-3.57h33.575c1.955 0 3.57 1.615 3.57 3.57v23.97c0 1.955-1.615 3.57-3.57 3.57zM3.969 2.825c-.68 0-1.19.51-1.19 1.19v23.97c0 .68.51 1.19 1.19 1.19h33.575c.68 0 1.19-.51 1.19-1.19V4.015c0-.68-.51-1.19-1.19-1.19H3.969z"/>
      <path d="M26.834 14.725c-2.635 0-4.675-2.125-4.675-4.675s2.125-4.675 4.675-4.675 4.675 2.125 4.675 4.675-2.125 4.675-4.675 4.675zm0-7.225c-1.36 0-2.465 1.105-2.465 2.465s1.105 2.465 2.465 2.465c1.36 0 2.465-1.105 2.465-2.465S28.194 7.5 26.834 7.5zm6.376 23.714L13.575 12.769l-11.22 10.37-1.53-1.615 12.75-11.815 21.165 19.89-1.53 1.615z"/>
      <path d="m39.33 25.094-6.545-5.27-5.44 4.505-1.445-1.785 6.885-5.61 7.905 6.46-1.36 1.7z"/>
    </symbol>
    <symbol id="icon-info-circle-filled" viewBox="0 0 32 32">
      <path d="M16 2.666c-7.363 0-13.333 5.97-13.333 13.333S8.637 29.332 16 29.332s13.333-5.97 13.333-13.333S23.363 2.666 16 2.666zm.953 19.762a.239.239 0 0 1-.238.238h-1.429a.239.239 0 0 1-.238-.238v-8.095c0-.131.107-.238.238-.238h1.429c.131 0 .238.107.238.238v8.095zM16 12.189a1.429 1.429 0 0 1 0-2.858 1.433 1.433 0 0 1 1.4 1.429 1.431 1.431 0 0 1-1.4 1.429z"/>
    </symbol>
    <symbol id="icon-instagram" viewBox="0 0 32 32">
      <path stroke-width=".8" d="M19.348 9.616h.014c.482.006.958.094 1.41.261a2.36 2.36 0 0 1 1.351 1.349c.167.452.255.929.261 1.411v.014c.04.869.05 1.126.05 3.348s-.01 2.479-.05 3.348v.014a4.22 4.22 0 0 1-.261 1.41 2.36 2.36 0 0 1-1.349 1.351 4.222 4.222 0 0 1-1.411.261h-.014c-.869.04-1.126.05-3.348.05s-2.479-.01-3.348-.05h-.014a4.22 4.22 0 0 1-1.41-.261 2.36 2.36 0 0 1-1.351-1.349 4.222 4.222 0 0 1-.261-1.411v-.014c-.04-.869-.05-1.126-.05-3.348s.01-2.479.05-3.348v-.014a4.22 4.22 0 0 1 .261-1.41 2.36 2.36 0 0 1 1.349-1.351 4.222 4.222 0 0 1 1.411-.261h.014c.869-.04 1.126-.05 3.348-.05s2.479.01 3.348.05zM13.4 19.891a4.682 4.682 0 0 0 5.909-.582 4.683 4.683 0 0 0 .582-5.909 4.678 4.678 0 0 0-8.481 1.687 4.678 4.678 0 0 0 1.99 4.804zm6.27-7.176a1.399 1.399 0 0 0 2.178-1.164 1.399 1.399 0 0 0-1.673-1.374 1.398 1.398 0 0 0-1.02 1.909c.106.256.285.474.516.628z"/>
      <path stroke-width=".8" d="M18.379 16a2.378 2.378 0 1 1-4.756 0 2.378 2.378 0 0 1 4.756 0z"/>
      <path stroke-width=".8" d="m24.268 21.603.001-.004a6.522 6.522 0 0 0 .414-2.149c.04-.895.05-1.188.05-3.45s-.01-2.555-.05-3.45a6.522 6.522 0 0 0-.414-2.149l-.001-.004a4.66 4.66 0 0 0-2.665-2.665l-.004-.001a6.522 6.522 0 0 0-2.149-.414c-.895-.04-1.188-.05-3.45-.05s-2.555.01-3.45.05a6.527 6.527 0 0 0-2.149.414l-.004.001a4.66 4.66 0 0 0-2.665 2.665l-.001.004a6.522 6.522 0 0 0-.414 2.149c-.04.895-.05 1.188-.05 3.45s.01 2.555.05 3.45c.016.734.156 1.461.414 2.149l.001.004a4.66 4.66 0 0 0 2.665 2.665l.004.001a6.522 6.522 0 0 0 2.149.414c.895.04 1.188.05 3.45.05s2.555-.01 3.45-.05a6.527 6.527 0 0 0 2.149-.414l.004-.001a4.66 4.66 0 0 0 2.665-2.665zM7.333 3.029a15.601 15.601 0 0 1 21.638 21.638 15.607 15.607 0 0 1-16.014 6.634A15.601 15.601 0 0 1 .701 19.045 15.596 15.596 0 0 1 7.335 3.031z"/>
    </symbol>
    <symbol id="icon-location-on" viewBox="0 0 32 32">
      <path d="M16 2.667c-5.153 0-9.333 4.18-9.333 9.333C6.667 19 16 29.333 16 29.333S25.333 19 25.333 12c0-5.153-4.18-9.333-9.333-9.333zm0 12.666a3.334 3.334 0 0 1 0-6.666 3.334 3.334 0 0 1 0 6.666z"/>
    </symbol>
    <symbol id="icon-lock-filled" viewBox="0 0 32 32">
      <path d="M27.428 14.287h-2.429v-8a4.57 4.57 0 0 0-4.571-4.571h-8.857A4.57 4.57 0 0 0 7 6.287v8H4.571c-.632 0-1.143.511-1.143 1.143v13.714c0 .632.511 1.143 1.143 1.143h22.857c.632 0 1.143-.511 1.143-1.143V15.43c0-.632-.511-1.143-1.143-1.143zM17 22.751v1.893a.287.287 0 0 1-.286.286h-1.428a.287.287 0 0 1-.286-.286v-1.893a1.72 1.72 0 0 1-.632-1.918A1.708 1.708 0 0 1 16 19.644a1.715 1.715 0 0 1 1.001 3.107zm5.428-8.464H9.571v-8a2 2 0 0 1 2-2h8.857a2 2 0 0 1 2 2v8z"/>
    </symbol>
    <symbol id="icon-mail-filled" viewBox="0 0 32 32">
      <path d="M30.857 3.428H1.143C.511 3.428 0 3.939 0 4.571v22.857c0 .632.511 1.143 1.143 1.143h29.714c.632 0 1.143-.511 1.143-1.143V4.571c0-.632-.511-1.143-1.143-1.143zm-2.886 3.889-11.268 8.768a.766.766 0 0 1-.946 0L4.486 7.317a.258.258 0 0 1-.086-.286.26.26 0 0 1 .244-.174h23.171a.26.26 0 0 1 .244.174.254.254 0 0 1-.086.286z"/>
    </symbol>
    <symbol id="icon-paper-clip" viewBox="0 0 31 32">
      <path stroke-linecap="round" stroke-miterlimit="10" stroke-width="1.143" d="M9.098 18.341a2.462 2.462 0 1 0 3.482 3.483l9.321-9.321"/>
      <path stroke-linecap="round" stroke-miterlimit="10" stroke-width="1.143" d="M16.679 7.28 4.528 19.43a4.925 4.925 0 0 0 6.965 6.964l15.198-15.198a3.694 3.694 0 0 0-5.224-5.223L9.099 18.341"/>
    </symbol>
    <symbol id="icon-question-circle-filled" viewBox="0 0 32 32">
      <path d="M16 2.666c-7.363 0-13.333 5.97-13.333 13.333S8.637 29.332 16 29.332s13.333-5.97 13.333-13.333S23.363 2.666 16 2.666zm0 21.071a1.19 1.19 0 1 1 0-2.38 1.19 1.19 0 0 1 0 2.38zm1.872-6.533a1.438 1.438 0 0 0-.919 1.333v.676a.239.239 0 0 1-.238.238h-1.429a.239.239 0 0 1-.238-.238v-.64a3.33 3.33 0 0 1 2.143-3.149c1.012-.39 1.667-1.238 1.667-2.164 0-1.313-1.283-2.381-2.857-2.381s-2.857 1.068-2.857 2.381v.226a.239.239 0 0 1-.238.238h-1.429a.239.239 0 0 1-.238-.238v-.226c0-1.17.512-2.262 1.44-3.074.893-.783 2.071-1.211 3.321-1.211s2.429.432 3.321 1.211c.929.813 1.44 1.905 1.44 3.074 0 1.72-1.134 3.268-2.89 3.943z"/>
    </symbol>
    <symbol id="icon-read-msg" viewBox="0 0 48 32">
      <path d="m20.439 25.313-9.646-10.03-3.215 3.343 12.861 13.373L47.998 3.342 44.782-.001 20.438 25.312z"/>
      <path d="m12.861 25.313-9.646-10.03L0 18.626l12.861 13.373L40.42 3.342 37.205-.001 12.861 25.312z"/>
    </symbol>
    <symbol id="icon-search" viewBox="0 0 32 32">
      <path d="m30.2 28.233-9.275-9.275a10.622 10.622 0 0 0 2.218-6.529c0-2.864-1.118-5.55-3.139-7.575s-4.714-3.139-7.575-3.139a10.65 10.65 0 0 0-7.575 3.139 10.629 10.629 0 0 0-3.139 7.575 10.65 10.65 0 0 0 3.139 7.575 10.629 10.629 0 0 0 7.575 3.139c2.393 0 4.664-.779 6.525-2.214l9.275 9.271a.287.287 0 0 0 .319.064.266.266 0 0 0 .095-.064l1.557-1.553a.287.287 0 0 0 .064-.319.275.275 0 0 0-.064-.095zM18.085 18.087c-1.514 1.511-3.521 2.343-5.657 2.343s-4.143-.832-5.657-2.343c-1.511-1.514-2.343-3.521-2.343-5.657s.832-4.146 2.343-5.657c1.514-1.511 3.521-2.343 5.657-2.343s4.146.829 5.657 2.343c1.511 1.514 2.343 3.521 2.343 5.657s-.832 4.146-2.343 5.657z"/>
    </symbol>
    <symbol id="icon-send" viewBox="0 0 32 32">
      <path stroke-linecap="round" stroke-linejoin="round" stroke-width="2.667" d="M29.333 2.667 14.666 17.334M29.333 2.667 20 29.334l-5.333-12-12-5.333 26.667-9.333z"/>
    </symbol>
    <symbol id="icon-star" viewBox="0 0 49 32">
      <path  d="M24.3 0.307c0.154-0.166 0.417-0.166 0.571 0l2.631 2.826c0.123 0.132 0.319 0.163 0.476 0.075l3.921-2.198c0.211-0.118 0.478-0.018 0.559 0.21l1.077 3.034c0.068 0.193 0.274 0.3 0.471 0.246l4.687-1.286c0.271-0.074 0.529 0.153 0.49 0.431l-0.402 2.833c-0.035 0.244 0.163 0.459 0.409 0.444l4.818-0.28c0.322-0.019 0.526 0.339 0.347 0.606l-1.623 2.427c-0.159 0.238-0.016 0.562 0.268 0.603l4.395 0.64c0.346 0.050 0.456 0.495 0.174 0.701l-2.67 1.955c-0.249 0.183-0.197 0.569 0.091 0.679l3.617 1.382c0.334 0.128 0.334 0.601 0 0.729l-3.617 1.382c-0.289 0.11-0.341 0.497-0.091 0.679l2.67 1.955c0.282 0.206 0.171 0.651-0.174 0.701l-4.395 0.64c-0.284 0.041-0.427 0.365-0.268 0.603l1.623 2.427c0.179 0.268-0.025 0.625-0.347 0.606l-4.818-0.28c-0.246-0.014-0.444 0.2-0.409 0.444l0.402 2.833c0.039 0.278-0.219 0.505-0.49 0.431l-4.687-1.286c-0.197-0.054-0.403 0.053-0.471 0.246l-1.077 3.034c-0.081 0.228-0.348 0.328-0.559 0.21l-3.921-2.198c-0.157-0.088-0.354-0.057-0.476 0.075l-2.631 2.826c-0.154 0.166-0.417 0.166-0.571 0l-2.631-2.826c-0.123-0.132-0.319-0.163-0.476-0.075l-3.921 2.198c-0.211 0.118-0.478 0.018-0.559-0.21l-1.077-3.034c-0.068-0.193-0.274-0.3-0.471-0.246l-4.687 1.286c-0.271 0.074-0.529-0.153-0.49-0.431l0.402-2.833c0.035-0.244-0.163-0.459-0.409-0.444l-4.818 0.28c-0.322 0.019-0.526-0.339-0.347-0.606l1.623-2.427c0.159-0.238 0.016-0.562-0.268-0.603l-4.395-0.64c-0.346-0.050-0.456-0.495-0.174-0.701l2.67-1.955c0.249-0.183 0.198-0.569-0.091-0.679l-3.617-1.382c-0.335-0.128-0.335-0.601 0-0.729l3.617-1.382c0.289-0.11 0.341-0.497 0.091-0.679l-2.67-1.955c-0.282-0.206-0.171-0.651 0.174-0.701l4.395-0.64c0.284-0.041 0.428-0.365 0.268-0.603l-1.623-2.427c-0.179-0.268 0.025-0.625 0.347-0.606l4.818 0.28c0.246 0.014 0.444-0.2 0.409-0.444l-0.402-2.833c-0.039-0.278 0.219-0.505 0.49-0.431l4.687 1.286c0.197 0.054 0.403-0.053 0.471-0.246l1.077-3.034c0.081-0.228 0.348-0.328 0.559-0.21l3.921 2.198c0.157 0.088 0.354 0.057 0.476-0.075l2.631-2.826z"></path>
</symbol>
    <symbol id="icon-unlock-filled" viewBox="0 0 32 32">
      <path d="M27.428 14.287H9.571v-8a2 2 0 0 1 2-2h8.857a2 2 0 0 1 2 2v2.429c0 .157.128.286.286.286h2A.287.287 0 0 0 25 8.716V6.287a4.57 4.57 0 0 0-4.571-4.571h-8.857a4.57 4.57 0 0 0-4.571 4.571v8H4.572c-.632 0-1.143.511-1.143 1.143v13.714c0 .632.511 1.143 1.143 1.143h22.857c.632 0 1.143-.511 1.143-1.143V15.43c0-.632-.511-1.143-1.143-1.143zM17 22.751v1.893a.287.287 0 0 1-.286.286h-1.428a.287.287 0 0 1-.286-.286v-1.893a1.72 1.72 0 0 1-.632-1.918A1.708 1.708 0 0 1 16 19.644a1.715 1.715 0 0 1 1.001 3.107z"/>
    </symbol>
    <symbol id="icon-user" viewBox="0 0 33 32">
      <path d="M16.678 17.969c4.954 0 8.928-4.037 8.928-8.96S21.633 0 16.678 0C11.724 0 7.75 4.037 7.75 8.96s3.973 9.009 8.928 9.009zm0-15.606c3.63 0 6.573 2.954 6.573 6.597s-2.943 6.597-6.573 6.597c-3.63 0-6.573-2.905-6.573-6.548s2.943-6.646 6.573-6.646zM1.177 32h31.1c.638 0 1.177-.542 1.177-1.182 0-6.203-5.053-11.274-11.233-11.274H11.233C5.052 19.544 0 24.615 0 30.818 0 31.458.54 32 1.177 32zm10.056-10.092h10.988c4.513 0 8.192 3.348 8.781 7.729H2.453c.589-4.382 4.268-7.729 8.781-7.729z"/>
    </symbol>
    <symbol id="icon-warning-filled" viewBox="0 0 32 32">
      <path d="M30.524 27.7 16.906 3.21a1.028 1.028 0 0 0-1.814 0L1.474 27.7c-.403.728.101 1.633.907 1.633h27.237c.805 0 1.309-.905.907-1.633zM14.952 12.734c0-.15.118-.272.262-.272h1.571c.144 0 .262.122.262.272v6.259c0 .15-.118.272-.262.272h-1.571a.268.268 0 0 1-.262-.272v-6.258zm1.047 11.972c-.411-.009-.803-.184-1.091-.49s-.449-.716-.449-1.143c0-.427.161-.838.449-1.143s.679-.481 1.091-.49c.411.009.803.185 1.091.49s.449.716.449 1.143-.161.838-.449 1.143a1.546 1.546 0 0 1-1.091.49z"/>
    </symbol>
    <symbol id="icon-edit" viewBox="0 0 32 32">
      <path d="M24.75 1.14C24.02 0.41 23.02 0 21.98 0C20.94 0 19.94 0.41 19.2 1.14L1.58 18.76C1.08 19.26 0.68 19.86 0.41 20.52C0.13 21.18 -0.01 21.88 0 22.59L0 24.82C0 25.1 0.11 25.38 0.31 25.58C0.52 25.79 0.79 25.9 1.08 25.9L3.3 25.9C4.01 25.9 4.72 25.76 5.38 25.49C6.03 25.22 6.63 24.82 7.13 24.31L24.75 6.69C25.49 5.96 25.9 4.96 25.9 3.92C25.9 2.88 25.49 1.88 24.75 1.14ZM5.6 22.78C4.99 23.39 4.16 23.73 3.3 23.73L2.16 23.73L2.16 22.59C2.16 22.16 2.24 21.74 2.41 21.35C2.57 20.95 2.81 20.59 3.11 20.29L16.49 6.92L18.98 9.41L5.6 22.78ZM23.22 5.16L20.5 7.88L18.01 5.39L20.73 2.67C20.89 2.51 21.09 2.38 21.3 2.29C21.51 2.21 21.74 2.16 21.97 2.16C22.21 2.16 22.43 2.21 22.65 2.3C22.86 2.38 23.05 2.51 23.22 2.68C23.38 2.84 23.51 3.04 23.6 3.25C23.69 3.46 23.73 3.69 23.73 3.92C23.73 4.15 23.69 4.38 23.6 4.6C23.51 4.81 23.38 5 23.22 5.17L23.22 5.16Z" fill="#000000" fill-opacity="1.000000" fill-rule="nonzero"/>
    </symbol>
    <!-- messages page -->
    <symbol id="icon-heart-selected" viewBox="0 0 24 25">
      <path d="M17.1949 0.500558C16.206 0.494162 15.2281 0.750527 14.3303 1.25149C13.4326 1.75245 12.637 2.48575 12 3.39943C11.3672 2.47983 10.5725 1.7424 9.67375 1.2409C8.77503 0.739397 7.79499 0.48647 6.80506 0.500558C5.00025 0.500558 3.26935 1.36655 1.99316 2.90802C0.71696 4.44948 0 6.54016 0 8.72013C0 16.4994 11.2405 24.0951 11.6962 24.3887C11.7861 24.4613 11.8918 24.5 12 24.5C12.1082 24.5 12.2139 24.4613 12.3038 24.3887C12.7595 24.0951 24 16.6095 24 8.72013C24 6.54016 23.283 4.44948 22.0068 2.90802C20.7306 1.36655 18.9998 0.500558 17.1949 0.500558ZM22.1418 3.94589C20.3797 2.69828 22.2 10.4115 22.2 4.1C22.2 2.30931 9.1517 4.02468 10.2 2.75847C11.2483 1.49227 5.32254 1.96834 6.80506 1.96834C7.73495 1.9536 8.6526 2.22555 9.47124 2.75847C10.2899 3.2914 10.9825 4.0677 11.4835 5.01398C11.5427 5.11252 11.6204 5.19272 11.7101 5.24803C11.7999 5.30333 11.8992 5.33217 12 5.33217C12.1008 5.33217 12.2001 5.30333 12.2899 5.24803C12.3796 5.19272 12.4573 5.11252 12.5165 5.01398C13.1758 3.79605 14.1432 2.868 15.2747 2.36811C16.4062 1.86822 17.4 0.5 15.6 1.1C16.7543 1.51663 11.571 2.93227 12.2899 4.1C13.0088 5.26773 22.7868 7.26494 22.7848 8.72013C22.7848 15.105 23.9038 2.73497 22.1418 3.94589Z" fill="black"/>
    </symbol>
    <symbol id="folder">
      <svg viewBox="0 0 20 19">
        <path d="M6.66667 11.1673H13.3333V12.0007H6.66667V11.1673ZM20 4.08398V18.6673H0V2.41732C0 1.26815 0.934167 0.333984 2.08333 0.333984H6.765L10.0983 2.00065H17.9167C19.0658 2.00065 20 2.93482 20 4.08398ZM0.833333 2.41732V5.33398H19.1667V4.08398C19.1667 3.39482 18.6058 2.83398 17.9167 2.83398H9.90167L6.56833 1.16732H2.08333C1.39417 1.16732 0.833333 1.72815 0.833333 2.41732ZM19.1667 17.834V6.16732H0.833333V17.834H19.1667Z" fill="black"/>
      </svg>
    </symbol>
    <symbol id="message-left-arrow" fill="none" viewBox="0 0 9 15">
      <path d="M7.70703 13.9135L1.29324 7.49973L7.70703 1.08594" stroke="black" stroke-width="2" stroke-miterlimit="10" stroke-linecap="round" stroke-linejoin="round"/>
    </symbol>
    <symbol id="message-tick" viewBox="0 0 19 12">
      <path fill-rule="evenodd" clip-rule="evenodd" d="M6.04545 9.49254L1.51136 5.73134L0 6.98507L6.04545 12L19 1.25373L17.4886 0L6.04545 9.49254Z" fill="black"/>
    </symbol>
    <symbol id="message-double-tick" viewBox="0 0 20 14">
      <path fill-rule="evenodd" clip-rule="evenodd" d="M9.09091 10.9925L5.27273 7.23134L4 8.48507L9.09091 13.5L20 2.75373L18.7273 1.5L9.09091 10.9925Z" fill="black"/>
      <path fill-rule="evenodd" clip-rule="evenodd" d="M5.09091 9.99254L1.27273 6.23134L0 7.48507L5.09091 12.5L16 1.75373L14.7273 0.5L5.09091 9.99254Z" fill="black"/>
    </symbol>
    <symbol id="no-entry-sign" viewBox="0 0 20 20" fill="none">
      <g clip-path="url(#clip0_2214_7222)">
      <path d="M10 0C8.02219 0 6.08879 0.58649 4.4443 1.6853C2.79981 2.78412 1.51809 4.3459 0.761209 6.17317C0.00433286 8.00043 -0.193701 10.0111 0.192152 11.9509C0.578004 13.8907 1.53041 15.6725 2.92894 17.0711C4.32746 18.4696 6.10929 19.422 8.0491 19.8079C9.98891 20.1937 11.9996 19.9957 13.8268 19.2388C15.6541 18.4819 17.2159 17.2002 18.3147 15.5557C19.4135 13.9112 20 11.9778 20 10C19.9971 7.34872 18.9426 4.80684 17.0679 2.9321C15.1932 1.05736 12.6513 0.00286757 10 0ZM10 1.66667C11.9222 1.66484 13.7854 2.33087 15.2708 3.55083L3.55084 15.2708C2.55171 14.0505 1.91965 12.5715 1.72821 11.0059C1.53676 9.44036 1.7938 7.85263 2.46942 6.42745C3.14504 5.00228 4.21145 3.79824 5.5446 2.95544C6.87774 2.11263 8.4228 1.66571 10 1.66667ZM10 18.3333C8.07773 18.3355 6.21446 17.6694 4.72917 16.4492L16.4492 4.72917C17.4483 5.94955 18.0804 7.42855 18.2718 8.9941C18.4632 10.5596 18.2062 12.1474 17.5306 13.5725C16.855 14.9977 15.7886 16.2018 14.4554 17.0446C13.1223 17.8874 11.5772 18.3343 10 18.3333Z" fill="black"/>
      </g>
      <defs>
        <clipPath id="clip0_2214_7222">
          <rect width="20" height="20" fill="white"/>
        </clipPath>
      </defs>
    </symbol>
    <symbol id="flag" viewBox="0 0 20 20" fill="none">
      <g clip-path="url(#clip0_2214_7226)">
        <path d="M20 0H2.45016C1.09865 0 0 0.934167 0 2.08333V20H0.980065V12.5H20L14.4616 6.25L20 0ZM18.034 11.6667H0.980065V2.08333C0.980065 1.39417 1.63965 0.833333 2.45016 0.833333H18.034L13.2346 6.25L18.034 11.6667Z" fill="black"/>
      </g>
      <defs>
        <clipPath id="clip0_2214_7226">
          <rect width="20" height="20" fill="white"/>
        </clipPath>
      </defs>
    </symbol>
    <symbol id="picture" viewBox="0 0 27 20" fill="none">
      <path d="M23.5184 19.7748H2.53397C1.3121 19.7748 0.302734 18.7654 0.302734 17.5436V2.5623C0.302734 1.34043 1.3121 0.331055 2.53397 0.331055H23.5184C24.7402 0.331055 25.7496 1.34043 25.7496 2.5623V17.5436C25.7496 18.7654 24.7402 19.7748 23.5184 19.7748ZM2.48086 1.76543C2.05586 1.76543 1.7371 2.08417 1.7371 2.50918V17.4904C1.7371 17.9154 2.05586 18.2342 2.48086 18.2342H23.4652C23.8902 18.2342 24.209 17.9154 24.209 17.4904V2.50918C24.209 2.08417 23.8902 1.76543 23.4652 1.76543H2.48086Z" fill="black"/>
      <path d="M16.7715 9.20312C15.1246 9.20312 13.8496 7.875 13.8496 6.28125C13.8496 4.6875 15.1777 3.35938 16.7715 3.35938C18.3652 3.35938 19.6934 4.6875 19.6934 6.28125C19.6934 7.875 18.3652 9.20312 16.7715 9.20312ZM16.7715 4.6875C15.9215 4.6875 15.2309 5.37812 15.2309 6.22812C15.2309 7.07812 15.9215 7.76875 16.7715 7.76875C17.6215 7.76875 18.3121 7.07812 18.3121 6.22812C18.3121 5.37812 17.6215 4.6875 16.7715 4.6875Z" fill="black"/>
      <path d="M20.7563 19.509L8.48437 7.98085L1.47187 14.4621L0.515625 13.4527L8.48437 6.06836L21.7125 18.4996L20.7563 19.509Z" fill="black"/>
      <path d="M24.5813 15.684L20.4906 12.3902L17.0906 15.2059L16.1875 14.0902L20.4906 10.584L25.4312 14.6215L24.5813 15.684Z" fill="black"/>
    </symbol>
    <symbol id="paper-clip" viewBox="0 0 25 26" fill="none">
      <g clip-path="url(#clip0_2214_6348)">
        <path d="M7.96107 16.0484C7.11975 16.8903 7.11975 18.2543 7.96107 19.0956C8.80239 19.9375 10.1664 19.9375 11.0077 19.0956L19.1639 10.9395" stroke="black" stroke-miterlimit="10" stroke-linecap="round"/>
        <path d="M14.5938 6.3696L3.9617 17.0011C2.2796 18.6832 2.2796 21.4129 3.96224 23.095C5.64488 24.7771 8.3735 24.7771 10.0556 23.095L23.3542 9.79698C24.6156 8.53554 24.6156 6.48894 23.3542 5.22696C22.0917 3.96444 20.0445 3.96498 18.7831 5.22696L7.96094 16.0486" stroke="black" stroke-miterlimit="10" stroke-linecap="round"/>
      </g>
      <defs>
        <clipPath id="clip0_2214_6348">
          <rect width="25" height="25" fill="white" transform="translate(0 0.5)"/>
        </clipPath>
      </defs>
    </symbol>
    <symbol id="message-send" viewBox="0 0 24 24" fill="none">
      <path d="M22 2L11 13" stroke="black" stroke-width="1" stroke-linecap="round" stroke-linejoin="round"/>
      <path d="M22 2L15 22L11 13L2 9L22 2Z" stroke="black" stroke-width="1" stroke-linecap="round" stroke-linejoin="round"/>
    </symbol>
  </defs>
</svg>
