<svg xmlns="http://www.w3.org/2000/svg" width="22" height="22" viewBox="0 0 22 22" fill="none">
  <path d="M11.0194 0C4.93293 0 0.0012207 4.57188 0.0012207 10.2143C0.0012207 12.5533 0.858233 14.6953 2.2787 16.4116C1.6382 18.3513 0.304253 19.9905 0.282731 20.0087C-0.00243807 20.3525 -0.0777657 20.8558 0.0836506 21.2855C0.250482 21.7152 0.619028 22 1.03311 22C3.68034 22 5.72925 20.7355 7.02058 19.7288C8.22582 20.1732 9.61185 20.4286 11.0194 20.4286C17.1059 20.4286 22 15.8552 22 10.2143C22 4.57335 17.1059 0 11.0194 0ZM11.0194 19.2257C9.86796 19.2257 8.3058 18.8926 7.2185 18.5L6.2185 18L5.83127 17.8016C5.83127 17.8016 3.01793 20.1258 2.00122 20.5C2.31867 19.9048 3.97476 17.9612 4.21194 17.2491L3.00122 15.5C2.22513 14.553 1.03311 12.2866 1.03311 10.2143C1.03311 5.88058 6.08006 1.5 11.0194 1.5C15.9587 1.5 20.7185 5.88058 20.7185 10.2143C20.7185 14.548 15.9566 19.2257 11.0194 19.2257Z" fill="black"/>
</svg>