<svg width="26" height="27" viewBox="0 0 26 27" fill="none" xmlns="http://www.w3.org/2000/svg">
<path d="M18.0851 10.2541L18.0859 10.2529C18.4143 9.79492 18.0879 9.15448 17.5224 9.15448H16.3883C15.9761 9.15448 15.5943 9.35456 15.3567 9.68317L15.3564 9.68365L11.9607 14.3926L10.6458 12.5679C10.6455 12.5676 10.6453 12.5673 10.6451 12.567C10.4049 12.2314 10.0183 12.0369 9.61258 12.0369H8.47847C7.91298 12.0369 7.58655 12.6774 7.91494 13.1354L7.91584 13.1366L10.9303 17.3138C10.9305 17.3141 10.9307 17.3143 10.9309 17.3146C11.0482 17.4782 11.2029 17.6115 11.382 17.7035C11.5614 17.7956 11.7601 17.8437 11.9618 17.8437C12.1635 17.8437 12.3623 17.7956 12.5417 17.7035L12.3132 17.2587L12.5417 17.7035C12.7208 17.6115 12.8754 17.4782 12.9928 17.3145C12.993 17.3143 12.9932 17.3141 12.9934 17.3138L18.0851 10.2541ZM2.66708 13.4993C2.66708 7.79298 7.29404 3.16602 13.0004 3.16602C18.7068 3.16602 23.3337 7.79298 23.3337 13.4993C23.3337 19.2057 18.7068 23.8327 13.0004 23.8327C7.29404 23.8327 2.66708 19.2057 2.66708 13.4993Z" stroke="#29B126"/>
</svg>
