<svg xmlns="http://www.w3.org/2000/svg" width="24" height="24" viewBox="0 0 24 24" fill="none">
  <path d="M15.6897 16.2991H15.692C16.0663 16.2991 16.3705 15.9949 16.3705 15.6205C16.3705 15.452 16.308 15.3039 16.2186 15.1921L16.2187 15.192L16.2112 15.1832L13.5789 12.0446L16.209 8.90834L16.2091 8.90842L16.2163 8.8994C16.3058 8.78759 16.3683 8.63949 16.3683 8.47098C16.3683 8.09032 16.06 7.79241 15.6897 7.79241L15.6875 7.79242L14.2142 7.79911L13.9824 7.80017L13.8334 7.97781L12.0002 10.1637L10.1667 7.97573L10.0177 7.79793L9.78575 7.79688L8.31031 7.79018V7.79018H8.30804C7.93368 7.79018 7.62946 8.09439 7.62946 8.46875H7.62943L7.6295 8.47432C7.63124 8.63086 7.6865 8.7821 7.78609 8.90289L7.78607 8.9029L7.789 8.90639L10.423 12.0425L7.7889 15.1808L7.78879 15.1807L7.78144 15.1899C7.692 15.3017 7.62946 15.4498 7.62946 15.6183C7.62946 15.999 7.93777 16.2969 8.30804 16.2969L8.31031 16.2969L9.78575 16.2902L10.0176 16.2891L10.1666 16.1115L12 13.9254L13.8357 16.1137L13.9847 16.2914L14.2165 16.2924L15.6897 16.2991ZM2.5 12C2.5 6.75382 6.75382 2.5 12 2.5C17.2462 2.5 21.5 6.75382 21.5 12C21.5 17.2462 17.2462 21.5 12 21.5C6.75382 21.5 2.5 17.2462 2.5 12Z" stroke="#FF5656"/>
</svg>