<svg xmlns="http://www.w3.org/2000/svg" width="24" height="24" viewBox="0 0 24 24" fill="none">
  <path d="M16.7247 9.02588L16.3192 8.7334L16.7255 9.02474C17.0469 8.57659 16.7275 7.94992 16.1741 7.94992H15.1272C14.7342 7.94992 14.3703 8.1407 14.1439 8.45387L14.1436 8.45434L11.0403 12.7578L9.85776 11.1169C9.85752 11.1165 9.85727 11.1162 9.85703 11.1159C9.62803 10.796 9.2595 10.6106 8.87277 10.6106H7.82589C7.27249 10.6106 6.95313 11.2373 7.27445 11.6855L7.27535 11.6867L10.0578 15.5425C10.0581 15.5428 10.0583 15.5432 10.0586 15.5435C10.1705 15.6993 10.3178 15.8263 10.4885 15.914C10.6595 16.0018 10.849 16.0477 11.0413 16.0477C11.2336 16.0477 11.4231 16.0018 11.5941 15.914C11.7649 15.8263 11.9123 15.6992 12.0242 15.5432C12.0244 15.543 12.0246 15.5427 12.0247 15.5425L16.7247 9.02588ZM2.5 11.999C2.5 6.75284 6.75382 2.49902 12 2.49902C17.2462 2.49902 21.5 6.75284 21.5 11.999C21.5 17.2452 17.2462 21.499 12 21.499C6.75382 21.499 2.5 17.2452 2.5 11.999Z" stroke="#29B126"/>
</svg>