<svg width="26" height="27" viewBox="0 0 26 27" fill="none" xmlns="http://www.w3.org/2000/svg">
<path d="M16.9978 18.115H17C17.3826 18.115 17.6935 17.8041 17.6935 17.4216C17.6935 17.2495 17.6297 17.0981 17.538 16.9835L17.5381 16.9834L17.5306 16.9745L14.6565 13.5477L17.5282 10.1233L17.5284 10.1234L17.5356 10.1143C17.6272 9.99974 17.6911 9.84828 17.6911 9.67625C17.6911 9.28722 17.3761 8.98279 16.9976 8.98279L16.9954 8.9828L15.3994 8.99005L15.1675 8.99111L15.0185 9.16875L13.0006 11.5749L10.9824 9.16649L10.8334 8.98869L10.6015 8.98763L9.00306 8.98038V8.98037H9.00079C8.61825 8.98037 8.30734 9.29129 8.30734 9.67383H8.30731L8.30737 9.6794C8.30915 9.83947 8.36566 9.99412 8.46749 10.1176L8.46748 10.1177L8.47041 10.1211L11.3464 13.5454L8.47031 16.972L8.4702 16.9719L8.46284 16.9811C8.37118 17.0957 8.30734 17.2471 8.30734 17.4192C8.30734 17.8082 8.62234 18.1126 9.00079 18.1126L9.00306 18.1126L10.6015 18.1054L10.8333 18.1043L10.9823 17.9267L13.0004 15.5203L15.021 17.9291L15.17 18.1067L15.4018 18.1078L16.9978 18.115ZM2.66708 13.4993C2.66708 7.79298 7.29404 3.16602 13.0004 3.16602C18.7068 3.16602 23.3337 7.79298 23.3337 13.4993C23.3337 19.2057 18.7068 23.8327 13.0004 23.8327C7.29404 23.8327 2.66708 19.2057 2.66708 13.4993Z" stroke="#FF5656"/>
</svg>
