<svg width="24" height="24" viewBox="0 0 24 24" fill="none" xmlns="http://www.w3.org/2000/svg">
<path d="M8.89301 11.9997C8.89301 12.7954 9.20908 13.5584 9.77169 14.121C10.3343 14.6837 11.0974 14.9997 11.893 14.9997C12.6887 14.9997 13.4517 14.6837 14.0143 14.121C14.5769 13.5584 14.893 12.7954 14.893 11.9997C14.893 11.2041 14.5769 10.441 14.0143 9.8784C13.4517 9.31579 12.6887 8.99972 11.893 8.99972C11.0974 8.99972 10.3343 9.31579 9.77169 9.8784C9.20908 10.441 8.89301 11.2041 8.89301 11.9997ZM23.5234 11.3087C20.9841 5.95954 17.1457 3.26758 12.0002 3.26758C6.85194 3.26758 3.01623 5.95954 0.476941 11.3113C0.375089 11.527 0.322266 11.7625 0.322266 12.0011C0.322266 12.2396 0.375089 12.4751 0.476941 12.6908C3.01623 18.0399 6.85462 20.7319 12.0002 20.7319C17.1484 20.7319 20.9841 18.0399 23.5234 12.6881C23.7296 12.2542 23.7296 11.7506 23.5234 11.3087ZM11.893 16.714C9.28944 16.714 7.17873 14.6033 7.17873 11.9997C7.17873 9.39615 9.28944 7.28544 11.893 7.28544C14.4966 7.28544 16.6073 9.39615 16.6073 11.9997C16.6073 14.6033 14.4966 16.714 11.893 16.714Z" fill="black"/>
</svg>
