<svg width="20" height="20" viewBox="0 0 20 20" fill="none" xmlns="http://www.w3.org/2000/svg">
<path d="M9.91084 12.4997C10.5739 12.4997 11.2098 12.2363 11.6786 11.7675C12.1475 11.2986 12.4108 10.6627 12.4108 9.99969C12.4108 9.92648 12.4075 9.85394 12.4012 9.78228L9.69343 12.4901C9.76508 12.4963 9.83741 12.4997 9.91084 12.4997ZM18.1858 2.26666L17.2323 1.31398C17.1988 1.28052 17.1534 1.26172 17.106 1.26172C17.0587 1.26172 17.0133 1.28052 16.9798 1.31398L14.5396 3.75483C13.1935 3.06688 11.6803 2.72291 10.0001 2.72291C5.70995 2.72291 2.50906 4.95728 0.39745 9.42603C0.312574 9.60576 0.268555 9.80205 0.268555 10.0008C0.268555 10.1996 0.312574 10.3959 0.39745 10.5756C1.2412 12.3528 2.2572 13.7773 3.44544 14.849L1.08406 17.2095C1.05059 17.243 1.0318 17.2884 1.0318 17.3357C1.0318 17.3831 1.05059 17.4285 1.08406 17.462L2.03696 18.4149C2.07044 18.4483 2.11585 18.4671 2.16319 18.4671C2.21053 18.4671 2.25593 18.4483 2.28941 18.4149L18.1858 2.51934C18.2024 2.50275 18.2156 2.48306 18.2246 2.46138C18.2336 2.4397 18.2382 2.41646 18.2382 2.393C18.2382 2.36953 18.2336 2.34629 18.2246 2.32462C18.2156 2.30294 18.2024 2.28324 18.1858 2.26666ZM5.98227 9.99969C5.98221 9.32114 6.15791 8.65413 6.49224 8.06366C6.82658 7.47318 7.30816 6.97937 7.89007 6.63034C8.47198 6.2813 9.13437 6.08894 9.81271 6.07199C10.4911 6.05504 11.1622 6.21408 11.7608 6.53362L10.6756 7.61889C10.2379 7.47875 9.77007 7.46187 9.32343 7.57011C8.87679 7.67835 8.4686 7.90752 8.14363 8.23249C7.81867 8.55745 7.5895 8.96564 7.48126 9.41228C7.37302 9.85892 7.3899 10.3267 7.53004 10.7644L6.44477 11.8497C6.14022 11.2807 5.98132 10.6451 5.98227 9.99969Z" fill="black"/>
<path d="M19.6026 9.42494C18.8169 7.77018 17.8817 6.42085 16.797 5.37695L13.5796 8.59459C13.8508 9.30355 13.911 10.0759 13.7527 10.8183C13.5945 11.5607 13.2246 12.2413 12.6879 12.7781C12.1512 13.3148 11.4705 13.6847 10.7281 13.8429C9.9857 14.0011 9.21337 13.941 8.50441 13.6698L5.77539 16.3988C7.04146 16.9847 8.44965 17.2776 9.99994 17.2776C14.2901 17.2776 17.491 15.0432 19.6026 10.5745C19.6875 10.3948 19.7315 10.1985 19.7315 9.99972C19.7315 9.80096 19.6875 9.60467 19.6026 9.42494Z" fill="black"/>
</svg>
