<svg xmlns="http://www.w3.org/2000/svg" width="24" height="24" viewBox="0 0 24 24" fill="none">
  <path d="M17.544 5.11618L17.22 4.95063C15.6827 4.16495 13.9462 3.7671 12.0002 3.7671C9.5178 3.7671 7.37268 4.41179 5.54438 5.68803C3.71196 6.96715 2.16852 8.90134 0.929059 11.5244L17.544 5.11618ZM17.544 5.11618L17.8012 4.85891M17.544 5.11618L17.8012 4.85891M17.8012 4.85891L20.5274 2.13195L21.2674 2.87129L2.59583 21.5418L1.85654 20.8025L4.48802 18.1721L4.86041 17.7998M17.8012 4.85891L4.86041 17.7998M4.86041 17.7998L4.46941 17.4471M4.86041 17.7998L4.46941 17.4471M4.46941 17.4471C3.10233 16.2141 1.91938 14.5626 0.928869 12.4764C0.858671 12.3276 0.822266 12.1651 0.822266 12.0006C0.822266 11.8359 0.85872 11.6733 0.929012 11.5245L4.46941 17.4471ZM6.67873 11.9989C6.67753 12.8558 6.88853 13.6997 7.2929 14.4552L7.61084 15.0492L8.08728 14.5728L9.3896 13.2705L9.60522 13.0549L9.51223 12.7644C9.37207 12.3267 9.35519 11.8588 9.46344 11.4121C9.5717 10.9654 9.80091 10.5572 10.1259 10.2321C10.4509 9.90714 10.8592 9.67793 11.3059 9.56967C11.7526 9.46142 12.2205 9.4783 12.6582 9.61846L12.9486 9.71145L13.1642 9.49583L14.4666 8.19351L14.9436 7.71652L14.3485 7.39887C13.5539 6.97475 12.6631 6.76366 11.7628 6.78615C10.8624 6.80865 9.98324 7.06397 9.21089 7.52723C8.43855 7.9905 7.79936 8.64592 7.3556 9.42964C6.91191 10.2132 6.67871 11.0984 6.67873 11.9989ZM6.67873 11.9989C6.67873 11.9988 6.67873 11.9986 6.67873 11.9985L7.17873 11.9992L6.67873 11.9993C6.67873 11.9992 6.67873 11.999 6.67873 11.9989ZM7.73373 14.2192L7.38017 13.8657L7.50953 13.7363C7.57488 13.901 7.64968 14.0622 7.73373 14.2192ZM7.73373 14.2192L8.17456 13.9833C8.15058 13.9385 8.12745 13.8933 8.10517 13.8478L7.73373 14.2192ZM20.3253 1.93005L20.3253 1.9301C20.3253 1.93009 20.3253 1.93007 20.3253 1.93005ZM21.4697 3.07335C21.4695 3.07323 21.4694 3.0731 21.4693 3.07298L21.4696 3.07332L21.4697 3.07335ZM13.6608 13.767C13.5183 13.9094 13.3605 14.0329 13.1912 14.1358L14.0296 13.2974C13.9267 13.4667 13.8032 13.6246 13.6608 13.767Z" stroke="black"/>
  <path d="M23.0715 11.5238C22.2354 9.76304 21.262 8.31147 20.1564 7.15949L16.8706 10.4456C17.1367 11.2989 17.1796 12.2082 16.9925 13.086C16.7824 14.0713 16.2916 14.9747 15.5792 15.687C14.8669 16.3994 13.9634 16.8903 12.9781 17.1003C12.1004 17.2874 11.1911 17.2445 10.3378 16.9784L7.81003 19.5061C9.08133 19.9889 10.4763 20.233 12.0001 20.233C14.4825 20.233 16.6276 19.5883 18.4559 18.312C20.2883 17.0329 21.8318 15.0987 23.0712 12.4757L23.0715 11.5238ZM23.0715 11.5238C23.1417 11.6725 23.178 11.835 23.178 11.9995C23.178 12.1641 23.1416 12.3267 23.0713 12.4756L23.0715 11.5238Z" stroke="black"/>
</svg>