<svg xmlns="http://www.w3.org/2000/svg" width="24" height="24" viewBox="0 0 24 24" fill="none">
  <path d="M23.0718 12.4735L23.0716 12.4738C21.8294 15.0919 20.2858 17.0265 18.4537 18.3071C16.6258 19.5847 14.4821 20.2319 12.0002 20.2319C9.51962 20.2319 7.37582 19.5848 5.54758 18.3074C3.71521 17.0271 2.17101 15.0933 0.928849 12.4768C0.858664 12.328 0.822266 12.1656 0.822266 12.0011C0.822266 11.8365 0.858678 11.674 0.928889 11.5252C2.1711 8.90728 3.71466 6.97288 5.54665 5.69234C7.37449 4.41471 9.51825 3.76758 12.0002 3.76758C14.4807 3.76758 16.6245 4.41469 18.4527 5.69207C20.2848 6.97212 21.8288 8.90548 23.0709 11.5214C23.2146 11.8302 23.2127 12.177 23.0718 12.4735ZM10.1252 13.7675C9.6564 13.2986 9.39301 12.6628 9.39301 11.9997C9.39301 11.3367 9.6564 10.7008 10.1252 10.232C10.5941 9.76311 11.23 9.49972 11.893 9.49972C12.5561 9.49972 13.1919 9.76311 13.6608 10.232C14.1296 10.7008 14.393 11.3367 14.393 11.9997C14.393 12.6628 14.1296 13.2986 13.6608 13.7675C13.1919 14.2363 12.5561 14.4997 11.893 14.4997C11.23 14.4997 10.5941 14.2363 10.1252 13.7675ZM6.67873 11.9997C6.67873 14.8794 9.0133 17.214 11.893 17.214C14.7727 17.214 17.1073 14.8794 17.1073 11.9997C17.1073 9.12001 14.7727 6.78544 11.893 6.78544C9.0133 6.78544 6.67873 9.12001 6.67873 11.9997Z" stroke="black"/>
</svg>