<svg xmlns="http://www.w3.org/2000/svg" width="40" height="40" viewBox="0 0 40 40" fill="none">
  <g clip-path="url(#clip0_3001_2171)">
    <path d="M24.548 14.5678H25.048V14.0678V10.9058V10.4058H24.548H21.6621C18.9453 10.4058 17.034 12.7233 17.034 15.4518V16.6998H14.444H13.944V17.1998V20.1718V20.6718H14.444H17.034V29.0938V29.5938H17.534H20.9401H21.4401V29.0938V20.6718H24.004H24.4206L24.4958 20.2622L25.0418 17.2902L25.1503 16.6998H24.55H21.4401V15.1158C21.4401 14.921 21.5024 14.7633 21.5756 14.6638C21.6296 14.5904 21.6688 14.5718 21.6775 14.5678H24.548ZM1.30005 19.9998C1.30005 9.67195 9.67219 1.2998 20 1.2998C30.3279 1.2998 38.7001 9.67195 38.7001 19.9998C38.7001 30.3277 30.3279 38.6998 20 38.6998C9.67219 38.6998 1.30005 30.3277 1.30005 19.9998Z" fill="#E5FF46" stroke="#9D9D9D"/>
  </g>
  <defs>
    <clipPath id="clip0_3001_2171">
      <rect width="40" height="40" fill="white"/>
    </clipPath>
  </defs>
</svg>