<svg xmlns="http://www.w3.org/2000/svg" width="22" height="22" viewBox="0 0 22 22" fill="none">
  <path d="M22 11.2933V20.7778C22 21.4528 21.4528 22 20.7778 22H15.8889C15.2139 22 14.6667 21.4528 14.6667 20.7778V14.0556C14.6667 13.718 14.3931 13.4444 14.0556 13.4444H7.94444C7.60694 13.4444 7.33333 13.718 7.33333 14.0556V20.7778C7.33333 21.4528 6.78613 22 6.11111 22H1.22222C0.547207 22 0 21.4528 0 20.7778V11.2933C0.000855812 10.3212 0.387726 9.3892 1.07556 8.70222L9.42333 0.354444C9.65098 0.128646 9.95825 0.00135009 10.2789 0H11.7211C12.0417 0.00135009 12.349 0.128646 12.5767 0.354444L20.9244 8.70222C21.6123 9.3892 21.9991 10.3212 22 11.2933Z" fill="black"/>
</svg>