<svg width="58" height="46" viewBox="0 0 58 46" fill="none" xmlns="http://www.w3.org/2000/svg">
<path d="M11.6359 14.3441C11.6359 12.7613 12.9398 11.4663 14.5336 11.4663C16.1274 11.4663 17.4313 12.7613 17.4313 14.3441C17.4313 15.9269 16.1274 17.2219 14.5336 17.2219C12.9398 17.2219 11.6359 15.9269 11.6359 14.3441ZM57.9996 7.1496V46H0.0449219V7.1496C0.0449219 3.17823 3.29039 -0.0449219 7.28926 -0.0449219H50.7553C54.7542 -0.0449219 57.9996 3.17823 57.9996 7.1496ZM2.94266 7.1496V42.6042L26.2115 19.4954L35.774 28.9922L55.1019 9.79719V7.1496C55.1019 4.76102 53.1604 2.83289 50.7553 2.83289H7.28926C4.88414 2.83289 2.94266 4.76102 2.94266 7.1496ZM55.1019 43.1222V13.8549L35.774 33.0499L26.2115 23.5531L6.53585 43.0935H55.1019V43.1222Z" fill="black"/>
</svg>
