<svg xmlns="http://www.w3.org/2000/svg" width="40" height="40" viewBox="0 0 40 40" fill="none">
  <g clip-path="url(#clip0_3001_2173)">
    <path d="M24.1855 12.02L24.1939 12.0204L24.2023 12.0205C24.8042 12.0276 25.4004 12.1379 25.9649 12.3466C26.3482 12.4946 26.6964 12.7211 26.9872 13.0115C27.2779 13.3019 27.5047 13.6498 27.6531 14.0329C27.8619 14.598 27.9722 15.1947 27.9791 15.7971L27.9792 15.8056L27.9796 15.8141C28.0291 16.9008 28.0416 17.2213 28.0416 19.9997C28.0416 22.7781 28.0291 23.0985 27.9796 24.1853L27.9792 24.1937L27.9791 24.2021C27.972 24.8039 27.8617 25.4001 27.653 25.9646C27.505 26.348 27.2785 26.6962 26.9881 26.9869C26.6977 27.2776 26.3498 27.5044 25.9667 27.6529C25.4017 27.8617 24.8049 27.972 24.2025 27.9789L24.194 27.979L24.1855 27.9794C23.0987 28.0289 22.7783 28.0413 19.9999 28.0413C17.2215 28.0413 16.9011 28.0289 15.8143 27.9794L15.8059 27.979L15.7975 27.9789C15.1956 27.9718 14.5995 27.8615 14.0349 27.6528C13.6516 27.5047 13.3034 27.2783 13.0127 26.9878L12.6593 27.3416L13.0127 26.9878C12.722 26.6975 12.4952 26.3496 12.3467 25.9665C12.1379 25.4014 12.0276 24.8047 12.0207 24.2023L12.0206 24.1938L12.0202 24.1853C11.9707 23.0985 11.9583 22.7781 11.9583 19.9997C11.9583 17.2213 11.9707 16.9008 12.0202 15.8141L12.0206 15.8057L12.0207 15.7972C12.0278 15.1954 12.1381 14.5992 12.3468 14.0347C12.4949 13.6513 12.7213 13.3031 13.0118 13.0124C13.3021 12.7217 13.65 12.4949 14.0331 12.3465C14.5982 12.1377 15.1949 12.0274 15.7973 12.0205L15.8058 12.0204L15.8143 12.02C16.9011 11.9705 17.2215 11.958 19.9999 11.958C22.7783 11.958 23.0987 11.9705 24.1855 12.02ZM16.7498 24.8638C17.7119 25.5066 18.8429 25.8497 19.9999 25.8497C21.5514 25.8497 23.0394 25.2333 24.1365 24.1362C25.2336 23.0392 25.8499 21.5512 25.8499 19.9997C25.8499 18.8427 25.5068 17.7116 24.864 16.7496C24.2212 15.7876 23.3076 15.0378 22.2386 14.595C21.1697 14.1522 19.9934 14.0364 18.8586 14.2621C17.7239 14.4878 16.6815 15.045 15.8633 15.8631C15.0452 16.6812 14.488 17.7236 14.2623 18.8584C14.0366 19.9932 14.1525 21.1694 14.5952 22.2384C15.038 23.3073 15.7878 24.221 16.7498 24.8638ZM24.5881 15.8943C24.8759 16.0866 25.2142 16.1893 25.5603 16.1893C26.0245 16.1893 26.4696 16.0049 26.7978 15.6767C27.126 15.3485 27.3103 14.9034 27.3103 14.4393C27.3103 14.0931 27.2077 13.7548 27.0154 13.467C26.8231 13.1792 26.5498 12.9549 26.23 12.8225C25.9103 12.69 25.5584 12.6554 25.2189 12.7229C24.8795 12.7904 24.5676 12.9571 24.3229 13.2018C24.0782 13.4466 23.9115 13.7584 23.844 14.0978C23.7764 14.4373 23.8111 14.7892 23.9435 15.109C24.076 15.4287 24.3003 15.702 24.5881 15.8943Z" fill="#E5FF46" stroke="#9D9D9D"/>
    <path d="M22.9729 20.0003C22.9729 21.6422 21.6419 22.9732 20 22.9732C18.3581 22.9732 17.0271 21.6422 17.0271 20.0003C17.0271 18.3584 18.3581 17.0273 20 17.0273C21.6419 17.0273 22.9729 18.3584 22.9729 20.0003Z" fill="#E5FF46" stroke="#9D9D9D"/>
    <path d="M30.3351 27.0033L30.3351 27.0033L30.3369 26.9985C30.6594 26.1387 30.8342 25.2305 30.8539 24.3123C30.9042 23.1934 30.9167 22.8268 30.9167 20C30.9167 17.1732 30.9042 16.8066 30.8539 15.6877C30.8342 14.7695 30.6594 13.8613 30.3369 13.0015L30.3369 13.0015L30.3351 12.9967C30.0424 12.2399 29.5949 11.5526 29.0211 10.9789C28.4474 10.4051 27.7601 9.95758 27.0033 9.66491L27.0033 9.66488L26.9985 9.6631C26.1387 9.34056 25.2304 9.16576 24.3123 9.14607C23.1934 9.09579 22.8268 9.08333 20 9.08333C17.1732 9.08333 16.8066 9.09579 15.6877 9.14607C14.7696 9.16576 13.8614 9.34056 13.0015 9.6631L13.0015 9.66308L12.9967 9.66491C12.24 9.95758 11.5527 10.4051 10.9789 10.9789C10.4051 11.5526 9.95759 12.2399 9.66492 12.9967L9.66489 12.9967L9.66311 13.0015C9.34057 13.8614 9.16577 14.7696 9.14608 15.6877C9.0958 16.8066 9.08334 17.1732 9.08334 20C9.08334 22.8268 9.0958 23.1934 9.14608 24.3123C9.16577 25.2304 9.34057 26.1386 9.66311 26.9985L9.66309 26.9985L9.66492 27.0033C9.95759 27.7601 10.4051 28.4474 10.9789 29.0211C11.5527 29.5949 12.24 30.0424 12.9967 30.3351L12.9967 30.3351L13.0015 30.3369C13.8613 30.6594 14.7695 30.8342 15.6877 30.8539C16.8066 30.9042 17.1732 30.9167 20 30.9167C22.8269 30.9167 23.1934 30.9042 24.3124 30.8539C25.2305 30.8342 26.1387 30.6594 26.9985 30.3369L26.9985 30.3369L27.0033 30.3351C27.7601 30.0424 28.4474 29.5949 29.0211 29.0211C29.5949 28.4474 30.0424 27.7601 30.3351 27.0033ZM9.16639 3.78634C12.3731 1.64365 16.1433 0.5 20 0.5C25.1717 0.5 30.1316 2.55446 33.7886 6.21142C37.4455 9.86838 39.5 14.8283 39.5 20C39.5 23.8567 38.3563 27.6269 36.2137 30.8336C34.071 34.0404 31.0255 36.5397 27.4623 38.0156C23.8992 39.4916 19.9784 39.8777 16.1957 39.1253C12.4131 38.3729 8.93855 36.5157 6.21143 33.7886C3.4843 31.0615 1.62711 27.5869 0.874696 23.8043C0.122284 20.0216 0.508449 16.1008 1.98436 12.5377C3.46027 8.97451 5.95963 5.92903 9.16639 3.78634Z" fill="#E5FF46" stroke="#9D9D9D"/>
  </g>
  <defs>
    <clipPath id="clip0_3001_2173">
      <rect width="40" height="40" fill="white"/>
    </clipPath>
  </defs>
</svg>