<svg width="104" height="77" viewBox="0 0 104 77" fill="none" xmlns="http://www.w3.org/2000/svg">
<path d="M1.59238 33.7346H3.76381V16.1895H1.59238V14.8576H16.5318V19.7216H14.4472V16.2763H6.25371V23.9487H11.9863V21.6325H13.7234V27.6835H11.9863V25.3674H6.25371V33.6477H14.7368V29.9418H16.8213V35.0664H1.59238V33.7346ZM19.9697 21.4588H18.4642V20.127H24.66V21.4588H22.5754L26.5998 32.4028H26.7156L30.6242 21.4588H28.5396V20.127H33.8089V21.4588H32.3034L27.063 35.0664H25.239L19.9697 21.4588ZM41.667 35.4138C40.6054 35.4138 39.65 35.2305 38.8007 34.8637C37.9707 34.4777 37.2662 33.9469 36.6872 33.2714C36.1081 32.5958 35.6642 31.7755 35.3554 30.8104C35.0466 29.8453 34.8921 28.7741 34.8921 27.5967C34.8921 26.4386 35.0562 25.3867 35.3843 24.4409C35.7318 23.4758 36.195 22.6458 36.774 21.951C37.3724 21.2561 38.0769 20.7253 38.8876 20.3586C39.6982 19.9726 40.5861 19.7795 41.5512 19.7795C42.5356 19.7795 43.4138 19.9533 44.1859 20.3007C44.9579 20.6481 45.6045 21.1403 46.1257 21.7773C46.6661 22.3949 47.0811 23.138 47.3706 24.0066C47.6601 24.8752 47.8049 25.8209 47.8049 26.8439V27.5098H37.5268V28.2626C37.5268 29.9032 37.9321 31.1964 38.7428 32.1422C39.5728 33.088 40.673 33.5609 42.0434 33.5609C43.2401 33.5609 44.1859 33.3196 44.8807 32.8371C45.5949 32.3352 46.1546 31.6886 46.56 30.8973L47.5154 31.5053C47.3224 32.0071 47.0521 32.4993 46.7047 32.9818C46.3766 33.4451 45.9713 33.8601 45.4887 34.2268C45.0062 34.5742 44.4464 34.8541 43.8095 35.0664C43.1725 35.298 42.4584 35.4138 41.667 35.4138ZM37.5268 26.178H45.315V25.8885C45.315 25.2129 45.2378 24.5856 45.0834 24.0066C44.9483 23.4275 44.7263 22.9257 44.4175 22.5011C44.1087 22.0764 43.713 21.7483 43.2304 21.5167C42.7672 21.2658 42.2074 21.1403 41.5512 21.1403C40.8949 21.1403 40.3159 21.2561 39.814 21.4877C39.3122 21.7194 38.8876 22.0475 38.5401 22.4721C38.212 22.8968 37.9611 23.3986 37.7874 23.9776C37.6137 24.5374 37.5268 25.155 37.5268 25.8306V26.178ZM50.5592 33.7346H52.7017V22.0089L50.5592 21.6325V20.6481L55.0179 19.7795V22.3853H55.1627C55.2978 22.0764 55.4618 21.7676 55.6548 21.4588C55.8672 21.15 56.1181 20.8701 56.4076 20.6192C56.7164 20.3682 57.0639 20.1656 57.4499 20.0112C57.8552 19.8568 58.3185 19.7795 58.8396 19.7795C59.6889 19.7795 60.3644 19.9822 60.8663 20.3875C61.3874 20.7929 61.648 21.3816 61.648 22.1536C61.648 22.7327 61.5032 23.1863 61.2137 23.5144C60.9242 23.8425 60.5478 24.0066 60.0846 24.0066C59.5634 24.0066 59.1484 23.8715 58.8396 23.6013C58.5308 23.3117 58.3764 22.945 58.3764 22.5011C58.3764 22.115 58.4536 21.8062 58.608 21.5746C58.7817 21.3237 58.9747 21.1789 59.187 21.1403V21.0824C59.1098 21.0631 59.0133 21.0535 58.8975 21.0535C58.7817 21.0342 58.6369 21.0245 58.4632 21.0245C58.0579 21.0245 57.6526 21.1307 57.2472 21.343C56.8419 21.536 56.4752 21.7966 56.147 22.1247C55.8382 22.4335 55.5776 22.7906 55.3653 23.1959C55.1723 23.6013 55.0758 24.0066 55.0758 24.4119V33.7346H57.7973V35.0664H50.5592V33.7346Z" fill="black"/>
<path d="M43.8483 60.7478C42.6516 60.7478 41.6865 60.4969 40.953 59.9951C40.2196 59.4932 39.6888 58.8852 39.3606 58.1711H39.2448L37.913 60.4004H36.9576V40.6259L34.8151 40.2495V39.2362L39.3317 38.3966V47.7192H39.4475C39.7756 47.0051 40.2968 46.3971 41.0109 45.8952C41.7251 45.3741 42.6709 45.1135 43.8483 45.1135C45.7012 45.1135 47.1778 45.7891 48.278 47.1402C49.3975 48.472 49.9572 50.4022 49.9572 52.9307C49.9572 55.4592 49.3975 57.399 48.278 58.7501C47.1778 60.0819 45.7012 60.7478 43.8483 60.7478ZM43.1534 59.0975C44.4852 59.0975 45.5178 58.6536 46.2513 57.7657C47.0041 56.8585 47.3805 55.6522 47.3805 54.1467V51.7147C47.3805 50.2092 47.0041 49.0125 46.2513 48.1246C45.5178 47.2174 44.4852 46.7638 43.1534 46.7638C42.6902 46.7638 42.2269 46.8314 41.7637 46.9665C41.3005 47.1016 40.8855 47.2946 40.5187 47.5455C40.1713 47.7965 39.8818 48.1149 39.6502 48.501C39.4378 48.8677 39.3317 49.2827 39.3317 49.7459V56.1154C39.3317 56.5787 39.4378 57.0033 39.6502 57.3893C39.8818 57.7561 40.1713 58.0649 40.5187 58.3158C40.8855 58.5667 41.3005 58.7598 41.7637 58.8949C42.2269 59.03 42.6902 59.0975 43.1534 59.0975ZM59.4436 60.7478C57.6486 60.7478 56.3554 60.2846 55.564 59.3581C54.792 58.4123 54.4059 56.9937 54.4059 55.1021V47.3429L52.2635 46.9665V45.9821L56.78 45.1135V54.8994C56.78 57.6982 57.9478 59.0975 60.2833 59.0975C60.7079 59.0975 61.1229 59.0396 61.5282 58.9238C61.9528 58.808 62.3292 58.6246 62.6574 58.3737C63.0048 58.1228 63.275 57.814 63.468 57.4472C63.6803 57.0805 63.7865 56.6462 63.7865 56.1444V47.3429L61.644 46.9665V45.9821L66.1606 45.1135V58.5185L68.3031 58.8949V59.8792L63.8444 60.7478V58.1421H63.7286C63.6128 58.4316 63.4294 58.7308 63.1785 59.0396C62.9469 59.3485 62.6477 59.6283 62.281 59.8792C61.9335 60.1302 61.5186 60.3328 61.036 60.4872C60.5535 60.661 60.0227 60.7478 59.4436 60.7478Z" fill="black"/>
<path d="M69.9165 75C69.9165 75.3088 69.9165 75.4632 69.9165 75.4632C69.6694 75.4632 69.4842 75.3088 69.3606 75C68.4959 72.7765 68.1253 70.3985 68.2488 67.8661C68.3724 65.3338 68.8047 62.7396 69.5459 60.0837C70.2871 57.4278 71.2753 54.7719 72.5106 52.116C73.8077 49.3984 75.1974 46.7734 76.6798 44.241C75.0121 43.1292 73.6224 41.7395 72.5106 40.0718C71.4606 38.3424 70.5342 36.5204 69.7312 34.6056C68.743 32.3203 67.9091 30.0041 67.2297 27.6571C66.5503 25.31 65.9018 23.0247 65.2841 20.8011C64.6665 18.5776 64.0179 16.4776 63.3385 14.5011C62.6591 12.4629 61.8562 10.6408 60.9297 9.03489C60.9297 8.78783 60.9606 8.69518 61.0223 8.75695C62.9371 10.1158 64.4194 11.7834 65.4694 13.7599C66.5812 15.7364 67.4768 17.8673 68.1562 20.1526C68.8974 22.4379 69.5768 24.8159 70.1944 27.2865C70.8121 29.6953 71.615 32.0115 72.6033 34.235C73.2827 35.7792 74.0239 37.2307 74.8268 38.5895C75.6915 39.8866 76.7415 41.1219 77.9769 42.2954L79.1813 40.3498C78.7489 39.7939 78.4092 39.2998 78.1621 38.8674C77.9769 38.3733 77.9769 38.0645 78.1621 37.941C78.2857 37.941 78.5019 38.0645 78.8107 38.3115C79.1195 38.4968 79.4592 38.8057 79.8298 39.238C80.4475 38.5586 80.9107 37.8792 81.2195 37.1998C80.1077 35.1615 79.1195 33.0306 78.2548 30.8071C77.4518 28.5835 76.6798 26.2982 75.9386 23.9512C75.321 21.9747 74.6724 20.06 73.993 18.207C73.3136 16.3541 72.3562 14.3467 71.1209 12.1849C71.0592 12.0614 70.9665 11.9687 70.843 11.907C70.7812 11.7834 70.7812 11.6908 70.843 11.629C70.9665 11.5055 71.1827 11.5364 71.4915 11.7217C72.7886 12.2776 73.9312 13.3276 74.9195 14.8717C75.9695 16.3541 76.896 17.9908 77.6989 19.782C78.5019 21.5732 79.1813 23.3644 79.7372 25.1556C80.3548 26.885 80.8489 28.2747 81.2195 29.3247L83.1651 34.4203C86.624 29.3556 89.9284 24.4144 93.0784 19.5967C96.2902 14.779 98.699 10.054 100.305 5.42163C100.428 5.11281 100.49 4.95839 100.49 4.95839C100.614 4.83487 100.676 4.92751 100.676 5.23634C100.737 5.4834 100.768 5.63781 100.768 5.69958C100.459 9.22019 99.5329 12.679 97.9887 16.0761C96.4446 19.4732 94.5917 22.8703 92.4299 26.2673C90.3299 29.6027 88.0446 32.9689 85.574 36.3659C83.1034 39.763 80.818 43.191 78.718 46.6498C77.3592 48.8734 76.093 51.2204 74.9195 53.691C73.7459 56.1616 72.7268 58.6631 71.8621 61.1955C71.0592 63.6661 70.4724 66.1058 70.1018 68.5147C69.7312 70.8617 69.6694 73.0235 69.9165 75ZM88.2607 50.7263C87.3343 52.2087 86.346 53.7528 85.296 55.3587C84.246 56.9028 83.1651 58.4161 82.0533 59.8984C81.0033 61.3808 79.9842 62.8014 78.996 64.1602C78.0077 65.5191 77.1121 66.7544 76.3092 67.8661C76.0004 68.2985 75.7224 68.6382 75.4754 68.8853C75.2283 69.0706 75.0739 69.1323 75.0121 69.0706C74.8886 69.0706 74.8886 68.8853 75.0121 68.5147C75.1357 68.1441 75.2592 67.8044 75.3827 67.4955C77.3592 62.4308 79.8298 57.5514 82.7945 52.8572C85.821 48.1631 88.9093 43.438 92.0593 38.6821C93.974 35.7174 95.9196 32.7527 97.8961 29.788C99.8726 26.7615 101.602 23.3026 103.084 19.4114C103.208 19.1026 103.239 18.9173 103.177 18.8555C103.177 18.7938 103.239 18.7629 103.362 18.7629C103.486 18.8247 103.548 18.9482 103.548 19.1335C103.548 19.3188 103.548 19.5041 103.548 19.6894C103.548 21.0482 103.27 22.5923 102.714 24.3217C102.158 26.0512 101.417 27.9041 100.49 29.8806C99.5637 31.7953 98.5446 33.7718 97.4329 35.8101C96.3211 37.7865 95.1784 39.7013 94.0049 41.5542C92.8931 43.4072 91.8122 45.1366 90.7622 46.7425C89.774 48.2866 88.9402 49.6146 88.2607 50.7263ZM97.0623 28.5835C94.9005 31.9189 92.5225 35.3777 89.9284 38.9601C87.3343 42.5424 84.771 45.8469 82.2386 48.8734C82.1151 48.9969 81.8372 49.3057 81.4048 49.7998C80.9725 50.2322 80.6636 50.3866 80.4783 50.2631C80.3548 50.1396 80.3857 49.8307 80.571 49.3366C80.818 48.7807 81.0033 48.4101 81.1269 48.2248C81.5592 47.3601 82.0842 46.3719 82.7019 45.2601C83.3195 44.0866 83.9681 42.913 84.6475 41.7395C85.3269 40.566 86.0063 39.4233 86.6857 38.3115C87.4269 37.1998 88.0754 36.2424 88.6313 35.4395C88.8784 35.0689 89.3725 34.2968 90.1137 33.1233C90.8549 31.888 91.6887 30.4674 92.6152 28.8615C93.5417 27.1938 94.5299 25.4026 95.5799 23.4879C96.6299 21.5732 97.5873 19.7203 98.452 17.9291C99.3167 16.0761 100.058 14.3776 100.676 12.8334C101.293 11.2276 101.633 9.96137 101.695 9.03489C101.818 8.41724 101.911 8.10841 101.973 8.10841C102.096 8.10841 102.189 8.26283 102.251 8.57165C102.312 8.81871 102.374 9.00401 102.436 9.12754C102.683 10.4246 102.683 11.9378 102.436 13.6673C102.189 15.3967 101.787 17.1879 101.231 19.0408C100.737 20.832 100.089 22.5923 99.2858 24.3217C98.5446 25.9894 97.8034 27.41 97.0623 28.5835ZM72.6959 18.0217C73.3754 20.307 74.0239 22.7467 74.6415 25.3409C75.321 27.8732 75.8768 30.3438 76.3092 32.7527C76.371 32.8762 76.371 33.0924 76.3092 33.4012C76.3092 33.6483 76.2474 33.8336 76.1239 33.9571C76.0004 34.0189 75.8151 33.9262 75.568 33.6792C75.321 33.4321 75.1665 33.2468 75.1048 33.1233C74.7959 32.6909 74.4562 32.135 74.0857 31.4556C73.7151 30.7762 73.3754 30.0659 73.0665 29.3247C72.7577 28.5835 72.4489 27.8424 72.1401 27.1012C71.893 26.36 71.6768 25.7115 71.4915 25.1556C71.3062 24.5379 70.9047 23.4879 70.2871 22.0056C69.7312 20.4614 69.0518 18.8555 68.2488 17.1879C67.5077 15.5202 66.7047 13.9452 65.84 12.4629C65.0371 10.9805 64.2959 9.96137 63.6165 9.40548C63.2459 9.03489 63.1223 8.84959 63.2459 8.84959C63.3076 8.78783 63.4312 8.78783 63.6165 8.84959C63.8018 8.91136 63.9562 8.97312 64.0797 9.03489C65.0679 9.34372 66.0253 9.83784 66.9518 10.5173C67.94 11.1967 68.8047 11.9687 69.5459 12.8334C70.3489 13.6982 70.9974 14.5938 71.4915 15.5202C72.0474 16.3849 72.4489 17.2188 72.6959 18.0217ZM73.2518 70.1823C73.0048 71.3559 72.8195 72.4059 72.6959 73.3323C72.6342 74.1971 72.6033 74.9691 72.6033 75.6485C72.6033 75.7721 72.6033 75.9265 72.6033 76.1118C72.6033 76.2971 72.5106 76.3897 72.3253 76.3897C72.2018 76.3897 72.0474 76.2971 71.8621 76.1118C71.7386 75.9882 71.6459 75.8338 71.5842 75.6485C71.4606 75.3397 71.3371 75.0309 71.2136 74.7221C71.09 74.4132 70.9974 74.0735 70.9356 73.7029C70.8739 73.2706 70.8739 72.7456 70.9356 72.1279C70.9974 71.4485 71.1209 70.6147 71.3062 69.6264C71.4915 68.8235 71.7695 67.8353 72.1401 66.6617C72.5106 65.4882 72.9121 64.3764 73.3445 63.3264C73.7768 62.2146 74.1783 61.319 74.5489 60.6396C74.9812 59.9602 75.321 59.6823 75.568 59.8058C75.6298 59.8676 75.6298 60.0837 75.568 60.4543C75.568 60.8249 75.5062 61.2573 75.3827 61.7514C75.2592 62.1837 75.1357 62.6161 75.0121 63.0485C74.8886 63.4808 74.7959 63.7896 74.7342 63.9749C74.4254 65.0249 74.1474 66.0749 73.9004 67.125C73.7151 68.1132 73.4989 69.1323 73.2518 70.1823Z" fill="#E5FF46"/>
</svg>
