<svg width="26" height="27" viewBox="0 0 26 27" fill="none" xmlns="http://www.w3.org/2000/svg">
<path d="M24.7574 1.7441C24.0209 1.00873 23.0227 0.595703 21.9819 0.595703C20.9412 0.595703 19.9429 1.00873 19.2064 1.7441L1.5871 19.3634C1.08254 19.8652 0.682475 20.462 0.410056 21.1193C0.137636 21.7766 -0.00173114 22.4815 1.62297e-05 23.193V25.4171C1.62297e-05 25.7044 0.114153 25.98 0.317317 26.1831C0.520482 26.3863 0.796032 26.5004 1.08335 26.5004H3.30743C4.01893 26.5024 4.72375 26.3633 5.3811 26.0911C6.03845 25.8188 6.63528 25.4189 7.13702 24.9144L24.7574 7.29402C25.4925 6.55757 25.9053 5.55957 25.9053 4.51906C25.9053 3.47856 25.4925 2.48056 24.7574 1.7441ZM5.60518 23.3826C4.99419 23.9895 4.16864 24.3313 3.30743 24.3338H2.16668V23.193C2.16559 22.7661 2.24919 22.3432 2.41264 21.9488C2.57609 21.5543 2.81616 21.1963 3.11893 20.8953L16.4905 7.52369L18.9822 10.0154L5.60518 23.3826ZM23.2245 5.76219L20.5097 8.47811L18.018 5.99185L20.7339 3.27594C20.8975 3.11269 21.0917 2.98326 21.3053 2.89505C21.5189 2.80683 21.7479 2.76156 21.979 2.76181C22.2101 2.76206 22.4389 2.80784 22.6523 2.89651C22.8658 2.98519 23.0596 3.11504 23.2229 3.27865C23.3861 3.44225 23.5156 3.63641 23.6038 3.85003C23.692 4.06366 23.7373 4.29257 23.737 4.52369C23.7368 4.75481 23.691 4.98362 23.6023 5.19705C23.5136 5.41048 23.3838 5.60436 23.2202 5.7676L23.2245 5.76219Z" fill="black"/>
</svg>
