<svg xmlns="http://www.w3.org/2000/svg" width="23" height="22" viewBox="0 0 23 22" fill="none">
  <path d="M16.4785 0.000511316C15.5308 -0.00535109 14.5935 0.22965 13.7332 0.688863C12.8729 1.14808 12.1105 1.82027 11.5 2.65781C10.8936 1.81484 10.1319 1.13886 9.27068 0.679156C8.40941 0.219447 7.47019 -0.0124025 6.52152 0.000511316C4.7919 0.000511316 3.13313 0.794334 1.91011 2.20735C0.687087 3.62036 0 5.53682 0 7.53512C0 14.6661 10.7722 21.6289 11.2089 21.898C11.295 21.9645 11.3964 22 11.5 22C11.6036 22 11.705 21.9645 11.7911 21.898C12.2278 21.6289 23 14.767 23 7.53512C23 5.53682 22.3129 3.62036 21.0899 2.20735C19.8669 0.794334 18.2081 0.000511316 16.4785 0.000511316ZM11.5 20.5525C9.81139 19.4089 1.16456 13.3206 1.16456 7.53512C1.16456 5.89366 1.72895 4.31942 2.73357 3.15874C3.7382 1.99805 5.10076 1.34598 6.52152 1.34598C7.41266 1.33246 8.29207 1.58175 9.0766 2.07027C9.86113 2.55878 10.5249 3.27039 11.0051 4.13782C11.0618 4.22814 11.1362 4.30166 11.2222 4.35236C11.3082 4.40306 11.4034 4.42949 11.5 4.42949C11.5966 4.42949 11.6918 4.40306 11.7778 4.35236C11.8638 4.30166 11.9382 4.22814 11.9949 4.13782C12.6268 3.02138 13.5539 2.17067 14.6383 1.71244C15.7226 1.2542 16.906 1.21297 18.0122 1.59488C19.1185 1.9768 20.0883 2.76141 20.7772 3.83184C21.4662 4.90226 21.8373 6.2012 21.8354 7.53512C21.8354 13.3879 13.1886 19.4425 11.5 20.5525Z" fill="black"/>
</svg>