<svg xmlns="http://www.w3.org/2000/svg" width="23" height="22" viewBox="0 0 23 22" fill="none">
  <path d="M11.4663 12.3538C14.8724 12.3538 17.6041 9.57846 17.6041 6.19385C17.6041 2.80923 14.8724 0 11.4663 0C8.06012 0 5.32845 2.77538 5.32845 6.16C5.32845 9.54462 8.06012 12.3538 11.4663 12.3538ZM11.4663 1.62462C13.9619 1.62462 15.9853 3.65539 15.9853 6.16C15.9853 8.66462 13.9619 10.6954 11.4663 10.6954C8.97067 10.6954 6.94721 8.69846 6.94721 6.19385C6.94721 3.68923 8.97067 1.62462 11.4663 1.62462ZM0.809384 22H22.1906C22.629 22 23 21.6277 23 21.1877C23 16.9231 19.5264 13.4369 15.2771 13.4369H7.72287C3.47361 13.4369 0 16.9231 0 21.1877C0 21.6277 0.370968 22 0.809384 22ZM7.72287 15.0615H15.2771C18.3798 15.0615 20.9091 17.3631 21.3138 20.3754H1.68622C2.09091 17.3631 4.62023 15.0615 7.72287 15.0615Z" fill="black"/>
</svg>